<?xml version="1.0" encoding="UTF-8"?>
<svg width="52.215mm" height="53.141mm" version="1.1" viewBox="0 0 52.215 53.141" xmlns="http://www.w3.org/2000/svg" xmlns:osb="http://www.openswatchbook.org/uri/2009/osb">
 <g transform="translate(-86.534 -83.787)">
  <path transform="scale(.26458)" d="m416.81 517.13c-6.6476-0.64245-12.132-1.9275-20.02-4.6907-16.868-5.9092-27.473-12.311-39.24-23.688-21.416-20.706-31.901-46.168-30.114-73.125 1.3611-20.53 6.9065-37.489 17.476-53.445 14.064-21.232 36.46-36.912 61.248-42.882 6.9657-1.6775 9.5437-2.0495 16.345-2.3586 10.272-0.4668 22.573 1.0007 32.086 3.8278 28.503 8.4705 52.185 30.335 63.382 58.518 5.1601 12.988 6.589 22.047 6.1967 39.286-0.31119 13.674-1.5114 20.832-4.9707 29.643-8.4728 21.581-21.687 38.553-39.552 50.801-13.105 8.9844-29.498 15.708-42.861 17.579-4.9998 0.69996-15.389 0.97812-19.976 0.53483zm24.079-10.568c23.033-7.0976 36.434-14.594 50.034-28.028 9.633-9.5159 15.705-20.924 20.285-35.194 1.1554-3.5999 3.0823-12.022 3.0823-13.472 0-1.2118-6.3912-0.51636-14.821 1.6126-9.3192 2.3535-20.206 6.811-28.251 11.567-10.086 5.9632-18.761 16.291-26.948 32.086-6.736 12.995-13.378 31.351-11.885 32.845 0.59957 0.59957 3.5695 0.10531 8.5038-1.4152zm-36.65-11.228c7.6022-1.9207 14.563-7.5394 18.587-15.003 2.0021-3.7133 3.9124-9.7491 6.0954-19.259 3.4281-14.934 5.4462-20.597 9.0651-25.439 4.2418-5.6755 9.4898-8.7513 21.551-12.63 12.111-3.8951 14.796-5.2747 21.092-10.838 8.6129-7.61 13.591-17.152 15.849-30.379 0.63094-3.6965 0.63253-15.323 2e-3 -17.857-1.1175-4.4949-4.056-8.9792-9.037-13.791-13.754-13.286-30.221-21.373-48.689-23.91-5.7078-0.78412-15.461-0.78819-21.071-9e-3 -19.268 2.6769-38.652 12.283-53.307 26.417-8.3929 8.0944-13.285 14.847-18.66 25.757-4.7692 9.6801-6.8294 15.716-8.4722 24.821-0.86087 4.7713-0.93652 5.9931-0.9619 15.536-0.0225 8.482 0.0909 11.06 0.62664 14.242 3.6128 21.455 17.351 43.468 34.173 54.758 4.8711 3.2691 11.784 6.3516 17.005 7.5828 5.139 1.2118 11.356 1.2118 16.152 8e-5z" fill="#05285b"/>
 </g>
</svg>
