<?xml version="1.0" encoding="UTF-8"?>
<svg width="52.215mm" height="53.141mm" version="1.1" viewBox="0 0 52.215 53.141" xmlns="http://www.w3.org/2000/svg" xmlns:cc="http://creativecommons.org/ns#" xmlns:dc="http://purl.org/dc/elements/1.1/" xmlns:osb="http://www.openswatchbook.org/uri/2009/osb" xmlns:rdf="http://www.w3.org/1999/02/22-rdf-syntax-ns#" xmlns:xlink="http://www.w3.org/1999/xlink">
 <defs>
  <radialGradient id="a" cx="416.6" cy="410.92" r="79.956" gradientTransform="matrix(1 0 0 1.0625 0 -25.666)" gradientUnits="userSpaceOnUse">
   <stop stop-color="#0d6efd" offset="0"/>
   <stop stop-color="#81b4fe" offset="1"/>
  </radialGradient>
  <linearGradient id="b" x1="479.88" x2="509.45" y1="446.29" y2="484.15" gradientUnits="userSpaceOnUse">
   <stop stop-color="#073984" offset="0"/>
   <stop stop-color="#6610f2" offset="1"/>
  </linearGradient>
 </defs>
 <metadata>
  <rdf:RDF>
   <cc:Work rdf:about="">
    <dc:format>image/svg+xml</dc:format>
    <dc:type rdf:resource="http://purl.org/dc/dcmitype/StillImage"/>
    <dc:title/>
   </cc:Work>
  </rdf:RDF>
 </metadata>
 <g transform="translate(-86.534 -83.787)">
  <g stroke="#a00" stroke-width=".35714">
   <path transform="scale(.26458)" d="m416.81 517.13c-6.6476-0.64245-12.132-1.9275-20.02-4.6907-16.868-5.9092-27.473-12.311-39.24-23.688-21.416-20.706-31.901-46.168-30.114-73.125 1.3611-20.53 6.9065-37.489 17.476-53.445 14.064-21.232 36.46-36.912 61.248-42.882 6.9657-1.6775 9.5437-2.0495 16.345-2.3586 10.272-0.4668 22.573 1.0007 32.086 3.8278 28.503 8.4705 52.185 30.335 63.382 58.518 5.1601 12.988 6.589 22.047 6.1967 39.286-0.31119 13.674-1.5114 20.832-4.9707 29.643-8.4728 21.581-21.687 38.553-39.552 50.801-13.105 8.9844-29.498 15.708-42.861 17.579-4.9998 0.69996-15.389 0.97812-19.976 0.53483zm24.079-10.568c23.033-7.0976 36.434-14.594 50.034-28.028 9.633-9.5159 15.705-20.924 20.285-35.194 1.1554-3.5999 3.0823-12.022 3.0823-13.472 0-1.2118-6.3912-0.51636-14.821 1.6126-9.3192 2.3535-20.206 6.811-28.251 11.567-10.086 5.9632-18.761 16.291-26.948 32.086-6.736 12.995-13.378 31.351-11.885 32.845 0.59957 0.59957 3.5695 0.10531 8.5038-1.4152zm-36.65-11.228c7.6022-1.9207 14.563-7.5394 18.587-15.003 2.0021-3.7133 3.9124-9.7491 6.0954-19.259 3.4281-14.934 5.4462-20.597 9.0651-25.439 4.2418-5.6755 9.4898-8.7513 21.551-12.63 12.111-3.8951 14.796-5.2747 21.092-10.838 8.6129-7.61 13.591-17.152 15.849-30.379 0.63094-3.6965 0.63253-15.323 2e-3 -17.857-1.1175-4.4949-4.056-8.9792-9.037-13.791-13.754-13.286-30.221-21.373-48.689-23.91-5.7078-0.78412-15.461-0.78819-21.071-9e-3 -19.268 2.6769-38.652 12.283-53.307 26.417-8.3929 8.0944-13.285 14.847-18.66 25.757-4.7692 9.6801-6.8294 15.716-8.4722 24.821-0.86087 4.7713-0.93652 5.9931-0.9619 15.536-0.0225 8.482 0.0909 11.06 0.62664 14.242 3.6128 21.455 17.351 43.468 34.173 54.758 4.8711 3.2691 11.784 6.3516 17.005 7.5828 5.139 1.2118 11.356 1.2118 16.152 8e-5z" fill="#fffaf0"/>
   <path transform="scale(.26458)" d="m388.91 495.12c-3.665-0.8009-9.5333-3.0658-13.3-5.1331-17.399-9.5497-32.106-30.372-37.648-53.303-0.90801-3.7573-0.95605-4.4466-1.1016-15.81-0.16992-13.264 0.0451-15.605 2.2219-24.19 1.5246-6.0126 3.4763-10.976 7.3629-18.726 5.7109-11.388 10.289-17.517 19.591-26.229 14.042-13.151 32.977-22.421 51.133-25.034 5.0482-0.72642 16.836-0.72861 22.031-4e-3 8.6933 1.2125 17.01 3.7924 25.287 7.8444 14.277 6.9889 27.458 18.601 30.898 27.219 0.7612 1.9068 0.83729 2.7079 0.95009 10.004 0.0964 6.2354-2e-3 8.603-0.46154 11.071-2.4479 13.158-7.6704 22.414-17.143 30.386-4.459 3.7524-8.7913 5.9238-18.214 9.129-9.234 3.141-9.5135 3.2477-12.763 4.8742-3.6311 1.8174-5.7716 3.3939-8.2655 6.0876-4.4743 4.8328-6.5467 9.8503-10.206 24.709-3.3446 13.582-4.3761 16.966-6.4523 21.168-3.7878 7.667-10.664 13.544-18.385 15.713-3.35 0.94116-11.7 1.0609-15.536 0.22273z" fill="url(#a)" opacity=".998"/>
   <path transform="scale(.26458)" d="m432.68 507.6c-0.87794-1.4205 3.7172-14.857 8.8714-25.941 7.5233-16.178 16.298-28.376 25.293-35.16 9.0932-6.8579 26.295-13.824 40.066-16.225 3.503-0.6108 7.0068-0.72842 7.0068-0.23522 0 0.1748-0.32209 1.8832-0.71575 3.7964-1.7611 8.5591-4.2874 15.876-8.3827 24.279-4.235 8.6894-8.6292 14.727-15.603 21.439-12.718 12.24-26.767 20.037-47.263 26.232-6.4449 1.9479-8.8941 2.4273-9.2727 1.8148z" fill="url(#b)"/>
  </g>
 </g>
</svg>
