<svg xmlns="http://www.w3.org/2000/svg" xmlns:xlink="http://www.w3.org/1999/xlink" xmlns:lucid="lucid" width="1872.44" height="1652.45"><g transform="translate(0 0)" lucid:page-tab-id="0_0"><path d="M0 0h1872.44v1652.45H0z" fill-opacity="0"/><path d="M452.2 20.23a8 8 0 0 1 8-8h836.74a8 8 0 0 1 8 8V45.4a8 8 0 0 1-8 8H460.2a8 8 0 0 1-8-8z" stroke="#000" stroke-opacity="0" stroke-width="2" fill="#fff" fill-opacity="0"/><use xlink:href="#a" transform="matrix(1,0,0,1,456.1891668241442,16.231056123470225) translate(351.6958024691358 25.782777777777778)"/><path d="M632.9 52.04h496.18M632.9 52.04h-1M1129.06 52.04h1.02" stroke="#a9afb8" stroke-width="2" fill="none"/><path d="M452.2 61.4a8 8 0 0 1 8-8h837.7a8 8 0 0 1 8 8v2.83a8 8 0 0 1-8 8H460.2a8 8 0 0 1-8-8z" stroke="#000" stroke-opacity="0" stroke-width="2" fill="#fff" fill-opacity="0"/><use xlink:href="#b" transform="matrix(1,0,0,1,456.18916682414465,57.38628008036903) translate(325.3756893004115 14.917037037037037)"/><use xlink:href="#c" transform="matrix(1,0,0,1,456.18916682414465,57.38628008036903) translate(354.26869341563787 14.917037037037037)"/><use xlink:href="#d" transform="matrix(1,0,0,1,456.18916682414465,57.38628008036903) translate(411.96972222222223 14.917037037037037)"/><use xlink:href="#e" transform="matrix(1,0,0,1,456.18916682414465,57.38628008036903) translate(424.41920781893003 14.917037037037037)"/><use xlink:href="#f" transform="matrix(1,0,0,1,456.18916682414465,57.38628008036903) translate(476.2566563786008 14.917037037037037)"/><use xlink:href="#g" transform="matrix(1,0,0,1,456.18916682414465,57.38628008036903) translate(493.25254115226335 14.917037037037037)"/><path d="M600 168a8 8 0 0 1 8-8h444a8 8 0 0 1 8 8v409a8 8 0 0 1-8 8H608a8 8 0 0 1-8-8z" fill="#fff"/><path d="M600 235v36h460v-36M600 305v36h460v-36M600 375v36h460v-36M600 445v36h460v-36M600 515v36h460v-36" fill="#e6e6e6"/><path d="M600 200v-32a8 8 0 0 1 8-8h444a8 8 0 0 1 8 8v32" fill="#ccc"/><path d="M600 168a8 8 0 0 1 8-8h444a8 8 0 0 1 8 8v409a8 8 0 0 1-8 8H608a8 8 0 0 1-8-8zM600 200h460M733.33 200v385" stroke="#3a414a" fill="none"/><use xlink:href="#h" transform="matrix(1,0,0,1,610,160) translate(201.28395061728395 25.15555555555556)"/><use xlink:href="#i" transform="matrix(1,0,0,1,605,202.5) translate(50.172839506172835 20.155555555555555)"/><use xlink:href="#j" transform="matrix(1,0,0,1,738.3333333333334,202.5) translate(125.43827160493828 20.155555555555555)"/><use xlink:href="#k" transform="matrix(1,0,0,1,605,237.5) translate(22.543209876543205 20.155555555555555)"/><use xlink:href="#l" transform="matrix(1,0,0,1,738.3333333333334,237.5) translate(135.3395061728395 20.155555555555555)"/><use xlink:href="#m" transform="matrix(1,0,0,1,605,272.5) translate(24.024691358024686 20.155555555555555)"/><use xlink:href="#l" transform="matrix(1,0,0,1,738.3333333333334,272.5) translate(135.3395061728395 20.155555555555555)"/><use xlink:href="#n" transform="matrix(1,0,0,1,605,307.5) translate(40.839506172839506 20.155555555555555)"/><use xlink:href="#l" transform="matrix(1,0,0,1,738.3333333333334,307.5) translate(135.3395061728395 20.155555555555555)"/><use xlink:href="#o" transform="matrix(1,0,0,1,605,342.5) translate(15.111111111111104 20.155555555555555)"/><use xlink:href="#l" transform="matrix(1,0,0,1,738.3333333333334,342.5) translate(135.3395061728395 20.155555555555555)"/><use xlink:href="#p" transform="matrix(1,0,0,1,605,377.5) translate(47.23456790123457 20.155555555555555)"/><use xlink:href="#q" transform="matrix(1,0,0,1,738.3333333333334,377.5) translate(104.79629629629629 20.155555555555555)"/><use xlink:href="#r" transform="matrix(1,0,0,1,738.3333333333334,377.5) translate(156.05555555555554 20.155555555555555)"/><use xlink:href="#s" transform="matrix(1,0,0,1,605,412.5) translate(39.80246913580247 20.155555555555555)"/><use xlink:href="#l" transform="matrix(1,0,0,1,738.3333333333334,412.5) translate(135.3395061728395 20.155555555555555)"/><use xlink:href="#t" transform="matrix(1,0,0,1,605,447.5) translate(24.543209876543205 20.155555555555555)"/><use xlink:href="#l" transform="matrix(1,0,0,1,738.3333333333334,447.5) translate(135.3395061728395 20.155555555555555)"/><use xlink:href="#u" transform="matrix(1,0,0,1,605,482.5) translate(9.23456790123456 20.155555555555555)"/><use xlink:href="#v" transform="matrix(1,0,0,1,738.3333333333334,482.5) translate(130.40123456790124 20.155555555555555)"/><use xlink:href="#w" transform="matrix(1,0,0,1,605,517.5) translate(-0.641975308641971 20.155555555555555)"/><use xlink:href="#q" transform="matrix(1,0,0,1,738.3333333333334,517.5) translate(104.79629629629629 20.155555555555555)"/><use xlink:href="#r" transform="matrix(1,0,0,1,738.3333333333334,517.5) translate(156.05555555555554 20.155555555555555)"/><use xlink:href="#x" transform="matrix(1,0,0,1,605,552.5) translate(15.16049382716049 20.155555555555555)"/><use xlink:href="#y" transform="matrix(1,0,0,1,738.3333333333334,552.5) translate(109.70987654320986 20.155555555555555)"/><path d="M1196.72 288a8 8 0 0 1 8-8h304a8 8 0 0 1 8 8v234a8 8 0 0 1-8 8h-304a8 8 0 0 1-8-8z" fill="#fff"/><path d="M1196.72 355v36h320v-36M1196.72 425v36h320v-36M1196.72 495v27a8 8 0 0 0 8 8h304a8 8 0 0 0 8-8v-27" fill="#e6e6e6"/><path d="M1196.72 320v-32a8 8 0 0 1 8-8h304a8 8 0 0 1 8 8v32" fill="#fc9432"/><path d="M1196.72 288a8 8 0 0 1 8-8h304a8 8 0 0 1 8 8v234a8 8 0 0 1-8 8h-304a8 8 0 0 1-8-8zM1196.72 320h320M1343.12 320v210" stroke="#3a414a" fill="none"/><use xlink:href="#z" transform="matrix(1,0,0,1,1206.719207107793,280) translate(55.85185185185183 25.15555555555556)"/><use xlink:href="#A" transform="matrix(1,0,0,1,1206.719207107793,280) translate(148.49382716049382 25.15555555555556)"/><use xlink:href="#i" transform="matrix(1,0,0,1,1201.719207107793,322.5) translate(56.672839506172835 20.155555555555555)"/><use xlink:href="#j" transform="matrix(1,0,0,1,1348.1192071077933,322.5) translate(48.93827160493828 20.155555555555555)"/><use xlink:href="#B" transform="matrix(1,0,0,1,1201.719207107793,357.5) translate(21.141975308641957 20.155555555555555)"/><use xlink:href="#j" transform="matrix(1,0,0,1,1348.1192071077933,357.5) translate(48.93827160493828 20.155555555555555)"/><use xlink:href="#C" transform="matrix(1,0,0,1,1201.719207107793,392.5) translate(44.82098765432099 20.155555555555555)"/><use xlink:href="#q" transform="matrix(1,0,0,1,1348.1192071077933,392.5) translate(28.296296296296294 20.155555555555555)"/><use xlink:href="#r" transform="matrix(1,0,0,1,1348.1192071077933,392.5) translate(79.55555555555557 20.155555555555555)"/><use xlink:href="#D" transform="matrix(1,0,0,1,1201.719207107793,427.5) translate(44.79629629629629 20.155555555555555)"/><use xlink:href="#q" transform="matrix(1,0,0,1,1348.1192071077933,427.5) translate(28.296296296296294 20.155555555555555)"/><use xlink:href="#r" transform="matrix(1,0,0,1,1348.1192071077933,427.5) translate(79.55555555555557 20.155555555555555)"/><use xlink:href="#E" transform="matrix(1,0,0,1,1201.719207107793,462.5) translate(53.21604938271605 20.155555555555555)"/><use xlink:href="#l" transform="matrix(1,0,0,1,1348.1192071077933,462.5) translate(58.839506172839506 20.155555555555555)"/><use xlink:href="#F" transform="matrix(1,0,0,1,1201.719207107793,497.5) translate(32.4753086419753 20.155555555555555)"/><use xlink:href="#l" transform="matrix(1,0,0,1,1348.1192071077933,497.5) translate(58.839506172839506 20.155555555555555)"/><path d="M1176.8 300h-36.44a12 12 0 0 0-12 12v243.5a12 12 0 0 1-12 12h-35.86" stroke="#3a414a" fill="none"/><path d="M1196 310l-20-10 20-10" stroke="#3a414a" fill="#fff" fill-opacity="0"/><path d="M1196 300h-20M1080.5 577.5v-20M1060.5 567.5h20" stroke="#3a414a" fill="#fff"/><path d="M716.72 796.18a8 8 0 0 1 8-8h464a8 8 0 0 1 8 8v199a8 8 0 0 1-8 8h-464a8 8 0 0 1-8-8z" fill="#fff"/><path d="M716.72 863.18v36h480v-36M716.72 933.18v36h480v-36" fill="#e6e6e6"/><path d="M716.72 828.18v-32a8 8 0 0 1 8-8h464a8 8 0 0 1 8 8v32" fill="#ccc"/><path d="M716.72 796.18a8 8 0 0 1 8-8h464a8 8 0 0 1 8 8v199a8 8 0 0 1-8 8h-464a8 8 0 0 1-8-8zM716.72 828.18h480M932.78 828.18v175" stroke="#3a414a" fill="none"/><use xlink:href="#G" transform="matrix(1,0,0,1,726.7192071077928,788.1822753874577) translate(202.37037037037035 25.15555555555556)"/><use xlink:href="#i" transform="matrix(1,0,0,1,721.7192071077928,830.6822753874577) translate(91.67283950617285 20.155555555555555)"/><use xlink:href="#j" transform="matrix(1,0,0,1,937.7827082262147,830.6822753874577) translate(93.93827160493828 20.155555555555555)"/><use xlink:href="#s" transform="matrix(1,0,0,1,721.7192071077928,865.6822753874577) translate(81.30246913580247 20.155555555555555)"/><use xlink:href="#l" transform="matrix(1,0,0,1,937.7827082262147,865.6822753874577) translate(103.8395061728395 20.155555555555555)"/><use xlink:href="#H" transform="matrix(1,0,0,1,721.7192071077928,900.6822753874577) translate(58.611111111111114 20.155555555555555)"/><use xlink:href="#I" transform="matrix(1,0,0,1,937.7827082262147,900.6822753874577) translate(108.25925925925927 20.155555555555555)"/><use xlink:href="#J" transform="matrix(1,0,0,1,721.7192071077928,935.6822753874577) translate(75.87037037037037 20.155555555555555)"/><use xlink:href="#q" transform="matrix(1,0,0,1,937.7827082262147,935.6822753874577) translate(73.29629629629629 20.155555555555555)"/><use xlink:href="#r" transform="matrix(1,0,0,1,937.7827082262147,935.6822753874577) translate(124.55555555555557 20.155555555555555)"/><use xlink:href="#K" transform="matrix(1,0,0,1,721.7192071077928,970.6822753874577) translate(77.35185185185186 20.155555555555555)"/><use xlink:href="#L" transform="matrix(1,0,0,1,937.7827082262147,970.6822753874577) translate(89.00000000000001 20.155555555555555)"/><path d="M76.72 653.5a8 8 0 0 1 8-8h304a8 8 0 0 1 8 8v269a8 8 0 0 1-8 8h-304a8 8 0 0 1-8-8z" fill="#fff"/><path d="M76.72 720.5v36h320v-36M76.72 790.5v36h320v-36M76.72 860.5v36h320v-36" fill="#e6e6e6"/><path d="M76.72 685.5v-32a8 8 0 0 1 8-8h304a8 8 0 0 1 8 8v32" fill="#ccc"/><path d="M76.72 653.5a8 8 0 0 1 8-8h304a8 8 0 0 1 8 8v269a8 8 0 0 1-8 8h-304a8 8 0 0 1-8-8zM76.72 685.5h320M240.72 685.5v245" stroke="#3a414a" fill="none"/><use xlink:href="#M" transform="matrix(1,0,0,1,86.71920710779287,645.4999858858864) translate(101.18518518518518 25.15555555555556)"/><use xlink:href="#i" transform="matrix(1,0,0,1,81.71920710779287,687.9999858858864) translate(65.17283950617285 20.155555555555555)"/><use xlink:href="#j" transform="matrix(1,0,0,1,245.71920710779287,687.9999858858864) translate(39.93827160493828 20.155555555555555)"/><use xlink:href="#N" transform="matrix(1,0,0,1,81.71920710779287,722.9999858858864) translate(59.71604938271605 20.155555555555555)"/><use xlink:href="#I" transform="matrix(1,0,0,1,245.71920710779287,722.9999858858864) translate(54.25925925925927 20.155555555555555)"/><use xlink:href="#O" transform="matrix(1,0,0,1,81.71920710779287,757.9999858858864) translate(40.53086419753086 20.155555555555555)"/><use xlink:href="#j" transform="matrix(1,0,0,1,245.71920710779287,757.9999858858864) translate(39.93827160493828 20.155555555555555)"/><use xlink:href="#P" transform="matrix(1,0,0,1,81.71920710779287,792.9999858858864) translate(50.358024691358025 20.155555555555555)"/><use xlink:href="#j" transform="matrix(1,0,0,1,245.71920710779287,792.9999858858864) translate(39.93827160493828 20.155555555555555)"/><use xlink:href="#Q" transform="matrix(1,0,0,1,81.71920710779287,827.9999858858864) translate(55.27160493827161 20.155555555555555)"/><use xlink:href="#l" transform="matrix(1,0,0,1,245.71920710779287,827.9999858858864) translate(49.839506172839506 20.155555555555555)"/><use xlink:href="#R" transform="matrix(1,0,0,1,81.71920710779287,862.9999858858864) translate(48.407407407407405 20.155555555555555)"/><use xlink:href="#L" transform="matrix(1,0,0,1,245.71920710779287,862.9999858858864) translate(35 20.155555555555555)"/><use xlink:href="#B" transform="matrix(1,0,0,1,81.71920710779287,897.9999858858864) translate(29.641975308641964 20.155555555555555)"/><use xlink:href="#j" transform="matrix(1,0,0,1,245.71920710779287,897.9999858858864) translate(39.93827160493828 20.155555555555555)"/><path d="M1217.22 985.87h8a12 12 0 0 0 12-12V677.5a12 12 0 0 0-12-12h-808.6" stroke="#3a414a" fill="none"/><path d="M1217.22 995.87v-20M1197.22 985.87h20" stroke="#3a414a" fill="#fff"/><path d="M397.44 655.5l20 10-20 10" stroke="#3a414a" fill="#fff" fill-opacity="0"/><path d="M397.44 665.5h20" stroke="#3a414a" fill="#fff"/><path d="M417.22 773h8a12 12 0 0 0 12-12V192a12 12 0 0 1 12-12H579.5" stroke="#3a414a" fill="none"/><path d="M417.22 783v-20M397.22 773h20M589.5 170v20M599.5 180h-20M579.5 170v20" stroke="#3a414a" fill="#fff"/><path d="M417.22 808h279" stroke="#3a414a" fill="none"/><path d="M417.22 818v-20M397.22 808h20M706.22 798v20M716.22 808h-20M696.22 798v20" stroke="#3a414a" fill="#fff"/><path d="M96.72 1076.7a8 8 0 0 1 8-8h404a8 8 0 0 1 8 8v339a8 8 0 0 1-8 8h-404a8 8 0 0 1-8-8z" fill="#fff"/><path d="M96.72 1143.7v36h420v-36M96.72 1213.7v36h420v-36M96.72 1283.7v36h420v-36M96.72 1353.7v36h420v-36" fill="#e6e6e6"/><path d="M96.72 1108.7v-32a8 8 0 0 1 8-8h404a8 8 0 0 1 8 8v32" fill="#ccc"/><path d="M96.72 1076.7a8 8 0 0 1 8-8h404a8 8 0 0 1 8 8v339a8 8 0 0 1-8 8h-404a8 8 0 0 1-8-8zM96.72 1108.7h420M286.23 1108.7v315" stroke="#3a414a" fill="none"/><use xlink:href="#S" transform="matrix(1,0,0,1,106.71920710779284,1068.6917995095205) translate(151.62962962962962 25.15555555555556)"/><use xlink:href="#i" transform="matrix(1,0,0,1,101.71920710779284,1111.1917995095205) translate(78.17283950617285 20.155555555555555)"/><use xlink:href="#j" transform="matrix(1,0,0,1,291.22797879651256,1111.1917995095205) translate(77.43827160493828 20.155555555555555)"/><use xlink:href="#T" transform="matrix(1,0,0,1,101.71920710779284,1146.1917995095205) translate(65.85185185185185 20.155555555555555)"/><use xlink:href="#U" transform="matrix(1,0,0,1,291.22797879651256,1146.1917995095205) translate(61.36419753086419 20.155555555555555)"/><use xlink:href="#V" transform="matrix(1,0,0,1,101.71920710779284,1181.1917995095205) translate(14.592592592592577 20.155555555555555)"/><use xlink:href="#W" transform="matrix(1,0,0,1,291.22797879651256,1181.1917995095205) translate(33.141975308641975 20.155555555555555)"/><use xlink:href="#X" transform="matrix(1,0,0,1,101.71920710779284,1216.1917995095205) translate(61.4320987654321 20.155555555555555)"/><use xlink:href="#Y" transform="matrix(1,0,0,1,291.22797879651256,1216.1917995095205) translate(77.9320987654321 20.155555555555555)"/><use xlink:href="#Z" transform="matrix(1,0,0,1,101.71920710779284,1251.1917995095205) translate(51.061728395061735 20.155555555555555)"/><use xlink:href="#j" transform="matrix(1,0,0,1,291.22797879651256,1251.1917995095205) translate(77.43827160493828 20.155555555555555)"/><use xlink:href="#aa" transform="matrix(1,0,0,1,101.71920710779284,1286.1917995095205) translate(36.29629629629629 20.155555555555555)"/><use xlink:href="#l" transform="matrix(1,0,0,1,291.22797879651256,1286.1917995095205) translate(87.3395061728395 20.155555555555555)"/><use xlink:href="#B" transform="matrix(1,0,0,1,101.71920710779284,1321.1917995095205) translate(42.64197530864196 20.155555555555555)"/><use xlink:href="#j" transform="matrix(1,0,0,1,291.22797879651256,1321.1917995095205) translate(77.43827160493828 20.155555555555555)"/><use xlink:href="#ab" transform="matrix(1,0,0,1,101.71920710779284,1356.1917995095205) translate(42.172839506172835 20.155555555555555)"/><use xlink:href="#j" transform="matrix(1,0,0,1,291.22797879651256,1356.1917995095205) translate(77.43827160493828 20.155555555555555)"/><use xlink:href="#P" transform="matrix(1,0,0,1,101.71920710779284,1391.1917995095205) translate(63.358024691358025 20.155555555555555)"/><use xlink:href="#j" transform="matrix(1,0,0,1,291.22797879651256,1391.1917995095205) translate(77.43827160493828 20.155555555555555)"/><path d="M696.72 1108.5a8 8 0 0 1 8-8h244a8 8 0 0 1 8 8v145a8 8 0 0 1-8 8h-244a8 8 0 0 1-8-8z" fill="#fff"/><path d="M696.72 1191.5v36h260v-36" fill="#dfe3e8"/><path d="M696.72 1156.5v-48a8 8 0 0 1 8-8h244a8 8 0 0 1 8 8v48" fill="#fc9432"/><path d="M696.72 1108.5a8 8 0 0 1 8-8h244a8 8 0 0 1 8 8v145a8 8 0 0 1-8 8h-244a8 8 0 0 1-8-8zM696.72 1156.5h260M796.72 1156.5v105" stroke="#3a414a" fill="none"/><use xlink:href="#ac" transform="matrix(1,0,0,1,706.7192071077928,1100.4999858858864) translate(42.641975308641975 22.488888888888887)"/><use xlink:href="#A" transform="matrix(1,0,0,1,706.7192071077928,1100.4999858858864) translate(72.17283950617283 43.82222222222222)"/><use xlink:href="#i" transform="matrix(1,0,0,1,701.7192071077928,1158.9999858858864) translate(33.172839506172835 20.155555555555555)"/><use xlink:href="#j" transform="matrix(1,0,0,1,801.7192071077928,1158.9999858858864) translate(41.93827160493828 20.155555555555555)"/><use xlink:href="#ad" transform="matrix(1,0,0,1,701.7192071077928,1193.9999858858864) translate(23.790123456790116 20.155555555555555)"/><use xlink:href="#ae" transform="matrix(1,0,0,1,801.7192071077928,1193.9999858858864) translate(43.46913580246914 20.155555555555555)"/><use xlink:href="#af" transform="matrix(1,0,0,1,701.7192071077928,1228.9999858858864) translate(23.320987654320984 20.155555555555555)"/><use xlink:href="#l" transform="matrix(1,0,0,1,801.7192071077928,1228.9999858858864) translate(51.839506172839506 20.155555555555555)"/><path d="M656.72 1128.5h-38a12 12 0 0 0-12 12v43.7a12 12 0 0 1-12 12h-57.5" stroke="#3a414a" fill="none"/><path d="M686.22 1118.5v20M696.22 1128.5h-20M676.22 1128.5c0 5.52-4.48 10-10 10s-10-4.48-10-10 4.48-10 10-10 10 4.48 10 10M527.22 1206.2v-20M517.22 1196.2h20M537.22 1206.2v-20" stroke="#3a414a" fill="#fff"/><path d="M76.22 1371.2h-28a12 12 0 0 1-12-12V677.5a12 12 0 0 1 12-12h8" stroke="#3a414a" fill="none"/><path d="M76.22 1361.2v20M96.22 1371.2h-20M66.22 655.5v20M76.22 665.5h-20M56.22 655.5v20" stroke="#3a414a" fill="#fff"/><path d="M417.22 878h8a12 12 0 0 1 12 12v97.6a12 12 0 0 1-12 12h-357a12 12 0 0 0-12 12v65.1a12 12 0 0 0 12 12h8.6" stroke="#3a414a" fill="none"/><path d="M417.22 888v-20M397.22 878h20" stroke="#3a414a" fill="#fff"/><path d="M96 1098.7l-20-10 20-10" stroke="#3a414a" fill="#fff" fill-opacity="0"/><path d="M96 1088.7H76" stroke="#3a414a" fill="#fff"/><path d="M537.22 1266.2h11.28a12 12 0 0 0 12-12V131.5a12 12 0 0 1 12-12h257a.5.5 0 0 1 .5.5" stroke="#3a414a" fill="none"/><path d="M537.22 1276.2v-20M517.22 1266.2h20M840 149.5h-20M830 159.5v-20M840 129.5c0 5.52-4.48 10-10 10s-10-4.48-10-10 4.48-10 10-10 10 4.48 10 10" stroke="#3a414a" fill="#fff"/><path d="M1060 1128a8 8 0 0 1 8-8h344a8 8 0 0 1 8 8v339a8 8 0 0 1-8 8h-344a8 8 0 0 1-8-8z" fill="#fff"/><path d="M1060 1195v36h360v-36M1060 1265v36h360v-36M1060 1335v36h360v-36M1060 1405v36h360v-36" fill="#e6e6e6"/><path d="M1060 1160v-32a8 8 0 0 1 8-8h344a8 8 0 0 1 8 8v32" fill="#ccc"/><path d="M1060 1128a8 8 0 0 1 8-8h344a8 8 0 0 1 8 8v339a8 8 0 0 1-8 8h-344a8 8 0 0 1-8-8zM1060 1160h360M1236.72 1160v315" stroke="#3a414a" fill="none"/><use xlink:href="#ag" transform="matrix(1,0,0,1,1070,1120) translate(120.69135802469135 25.15555555555556)"/><use xlink:href="#i" transform="matrix(1,0,0,1,1065,1162.5) translate(71.67283950617285 20.155555555555555)"/><use xlink:href="#j" transform="matrix(1,0,0,1,1241.7212695743506,1162.5) translate(53.93827160493828 20.155555555555555)"/><use xlink:href="#N" transform="matrix(1,0,0,1,1065,1197.5) translate(66.21604938271605 20.155555555555555)"/><use xlink:href="#I" transform="matrix(1,0,0,1,1241.7212695743506,1197.5) translate(68.25925925925927 20.155555555555555)"/><use xlink:href="#ah" transform="matrix(1,0,0,1,1065,1232.5) translate(43.03086419753086 20.155555555555555)"/><use xlink:href="#j" transform="matrix(1,0,0,1,1241.7212695743506,1232.5) translate(53.93827160493828 20.155555555555555)"/><use xlink:href="#Q" transform="matrix(1,0,0,1,1065,1267.5) translate(61.77160493827161 20.155555555555555)"/><use xlink:href="#l" transform="matrix(1,0,0,1,1241.7212695743506,1267.5) translate(63.839506172839506 20.155555555555555)"/><use xlink:href="#ab" transform="matrix(1,0,0,1,1065,1302.5) translate(35.672839506172835 20.155555555555555)"/><use xlink:href="#j" transform="matrix(1,0,0,1,1241.7212695743506,1302.5) translate(53.93827160493828 20.155555555555555)"/><use xlink:href="#R" transform="matrix(1,0,0,1,1065,1337.5) translate(54.907407407407405 20.155555555555555)"/><use xlink:href="#L" transform="matrix(1,0,0,1,1241.7212695743506,1337.5) translate(49 20.155555555555555)"/><use xlink:href="#ai" transform="matrix(1,0,0,1,1065,1372.5) translate(42.56172839506172 20.155555555555555)"/><use xlink:href="#aj" transform="matrix(1,0,0,1,1241.7212695743506,1372.5) translate(43.61728395061728 20.155555555555555)"/><use xlink:href="#O" transform="matrix(1,0,0,1,1065,1407.5) translate(47.03086419753086 20.155555555555555)"/><use xlink:href="#j" transform="matrix(1,0,0,1,1241.7212695743506,1407.5) translate(53.93827160493828 20.155555555555555)"/><use xlink:href="#P" transform="matrix(1,0,0,1,1065,1442.5) translate(56.858024691358025 20.155555555555555)"/><use xlink:href="#j" transform="matrix(1,0,0,1,1241.7212695743506,1442.5) translate(53.93827160493828 20.155555555555555)"/><path d="M1456.22 1377a8 8 0 0 1 8-8h244a8 8 0 0 1 8 8v199a8 8 0 0 1-8 8h-244a8 8 0 0 1-8-8z" fill="#fff"/><path d="M1456.22 1444v36h260v-36M1456.22 1514v36h260v-36" fill="#e6e6e6"/><path d="M1456.22 1409v-32a8 8 0 0 1 8-8h244a8 8 0 0 1 8 8v32" fill="#fc9432"/><path d="M1456.22 1377a8 8 0 0 1 8-8h244a8 8 0 0 1 8 8v199a8 8 0 0 1-8 8h-244a8 8 0 0 1-8-8zM1456.22 1409h260M1586.17 1409v175" stroke="#3a414a" fill="none"/><use xlink:href="#ak" transform="matrix(1,0,0,1,1466.2193032605196,1368.9880295601965) translate(31.25925925925925 25.15555555555556)"/><use xlink:href="#A" transform="matrix(1,0,0,1,1466.2193032605196,1368.9880295601965) translate(113.08641975308642 25.15555555555556)"/><use xlink:href="#i" transform="matrix(1,0,0,1,1461.2193032605196,1411.4880295601965) translate(48.172839506172835 20.155555555555555)"/><use xlink:href="#j" transform="matrix(1,0,0,1,1591.1664366398109,1411.4880295601965) translate(27.43827160493827 20.155555555555555)"/><use xlink:href="#N" transform="matrix(1,0,0,1,1461.2193032605196,1446.4880295601965) translate(42.71604938271605 20.155555555555555)"/><use xlink:href="#I" transform="matrix(1,0,0,1,1591.1664366398109,1446.4880295601965) translate(41.75925925925925 20.155555555555555)"/><use xlink:href="#al" transform="matrix(1,0,0,1,1461.2193032605196,1481.4880295601965) translate(34.839506172839506 20.155555555555555)"/><use xlink:href="#j" transform="matrix(1,0,0,1,1591.1664366398109,1481.4880295601965) translate(27.43827160493827 20.155555555555555)"/><use xlink:href="#am" transform="matrix(1,0,0,1,1461.2193032605196,1516.4880295601965) translate(34.839506172839506 20.155555555555555)"/><use xlink:href="#j" transform="matrix(1,0,0,1,1591.1664366398109,1516.4880295601965) translate(27.43827160493827 20.155555555555555)"/><use xlink:href="#an" transform="matrix(1,0,0,1,1461.2193032605196,1551.4880295601965) translate(21.506172839506174 20.155555555555555)"/><use xlink:href="#L" transform="matrix(1,0,0,1,1591.1664366398109,1551.4880295601965) translate(22.499999999999996 20.155555555555555)"/><path d="M1439.35 1388.65l-1.9-1.15" stroke="#3a414a" fill="none"/><path d="M1439.85 1398.7l1.22-19.96M1420.5 1387.5l19.96 1.22" stroke="#3a414a" fill="#fff"/><path d="M1454.87 1398.62l-19.33-11.24 20.6-8.72" stroke="#3a414a" fill="#fff" fill-opacity="0"/><path d="M1455.5 1388.64l-19.96-1.26" stroke="#3a414a" fill="#fff"/><path d="M1736.13 1566.83h28.1a12 12 0 0 0 12-12v-228.65a12 12 0 0 0-12-12h-55.95a12 12 0 0 0-12 12v2.8" stroke="#3a414a" fill="none"/><path d="M1716.94 1556.83l20 10-20 10" stroke="#3a414a" fill="#fff" fill-opacity="0"/><path d="M1716.94 1566.83h20" stroke="#3a414a" fill="#fff"/><path d="M1686.28 1368.26l10-20 10 20" stroke="#3a414a" fill="#fff" fill-opacity="0"/><path d="M1696.28 1368.26v-20M1706.28 1338.26c0 5.53-4.48 10-10 10-5.53 0-10-4.47-10-10 0-5.52 4.47-10 10-10 5.52 0 10 4.48 10 10" stroke="#3a414a" fill="#fff"/><path d="M1736.72 1531.7h87.5a12 12 0 0 0 12-12v-173.36a12 12 0 0 0-12-12h-55.5a12 12 0 0 0-12 12v41.8a.5.5 0 0 1-.5.5" stroke="#3a414a" fill="none"/><path d="M1736.72 1541.7v-20M1716.72 1531.7h20M1726.72 1398.65v-20M1716.72 1388.65h20M1756.72 1388.65c0 5.52-4.48 10-10 10s-10-4.48-10-10 4.48-10 10-10 10 4.48 10 10" stroke="#3a414a" fill="#fff"/><path d="M1736.72 1496.57h57.5a12 12 0 0 0 12-12V192a12 12 0 0 0-12-12H1080.5" stroke="#3a414a" fill="none"/><path d="M1736.72 1506.57v-20M1716.72 1496.57h20M1070.5 190v-20M1060.5 180h20M1080.5 190v-20" stroke="#3a414a" fill="#fff"/><path d="M537.22 1336.2H978a12 12 0 0 0 12-12V1152a12 12 0 0 1 12-12h37.5" stroke="#3a414a" fill="none"/><path d="M537.22 1346.2v-20M517.22 1336.2h20M1039.5 1130v20M1059.5 1140h-20" stroke="#3a414a" fill="#fff"/><path d="M1039.5 1352.5h-8a12 12 0 0 1-12-12V1052a12 12 0 0 0-12-12H446.46a8.78 8.78 0 0 0-8.78 8.78" stroke="#3a414a" fill="none"/><path d="M1039.5 1342.5v20M1059.5 1352.5h-20" stroke="#3a414a" fill="#fff"/><path d="M427.68 1067.97l10-20 10 20" stroke="#3a414a" fill="#fff" fill-opacity="0"/><path d="M437.68 1067.97v-20" stroke="#3a414a" fill="#fff"/><path d="M1440.5 1317.5h57.5a12 12 0 0 0 12-12v-673a12 12 0 0 0-12-12H371.16a4.5 4.5 0 0 0-4.5 4.5" stroke="#3a414a" fill="none"/><path d="M1440.5 1327.5v-20M1420.5 1317.5h20M376.66 635h-20M366.66 645v-20M376.66 625h-20" stroke="#3a414a" fill="#fff"/><path d="M1440.5 1247.5h164.22a12 12 0 0 0 12-12v-1104a12 12 0 0 0-12-12h-603.5a12 12 0 0 0-12 12v8" stroke="#3a414a" fill="none"/><path d="M1440.5 1257.5v-20M1420.5 1247.5h20M999.2 149.5h-20M989.2 159.5v-20M999.2 139.5h-20" stroke="#3a414a" fill="#fff"/><path d="M537.22 1406.57h67.5a12 12 0 0 0 12-12V841.22a12 12 0 0 1 12-12h68.1" stroke="#3a414a" fill="none"/><path d="M527.22 1416.57v-20M517.22 1406.57h20M537.22 1416.57v-20" stroke="#3a414a" fill="#fff"/><path d="M716 839.22l-20-10 20-10" stroke="#3a414a" fill="#fff" fill-opacity="0"/><path d="M716 829.22h-20" stroke="#3a414a" fill="#fff"/><path d="M417.22 913.4H458a12 12 0 0 1 12 12v82.6a12 12 0 0 0 12 12h614.6a12 12 0 0 1 12 12v67.5" stroke="#3a414a" fill="none"/><path d="M417.22 923.4v-20M397.22 913.4h20M1118.6 1099.5h-20M1108.6 1119.5v-20" stroke="#3a414a" fill="#fff"/><path d="M1039.5 1422.85H656a12 12 0 0 1-12-12V604.9" stroke="#3a414a" fill="none"/><path d="M1039.5 1412.85v20M1059.5 1422.85h-20" stroke="#3a414a" fill="#fff"/><path d="M654 585.72l-10 20-10-20" stroke="#3a414a" fill="#fff" fill-opacity="0"/><path d="M644 585.72v20" stroke="#3a414a" fill="#fff"/><path d="M1039.5 1457.94h-50.22a12 12 0 0 1-12-12V1023.1" stroke="#3a414a" fill="none"/><path d="M1039.5 1447.94v20M1059.5 1457.94h-20" stroke="#3a414a" fill="#fff"/><path d="M987.28 1003.9l-10 20-10-20" stroke="#3a414a" fill="#fff" fill-opacity="0"/><path d="M977.28 1003.9v20" stroke="#3a414a" fill="#fff"/><defs><path fill="#a9afb8" d="M185-48c-13 30-37 53-82 52C43 2 14-33 14-96s30-98 90-98c62 0 83 45 84 108H66c0 31 8 55 39 56 18 0 30-7 34-22zm-45-69c5-46-57-63-70-21-2 6-4 13-4 21h74" id="ao"/><path fill="#a9afb8" d="M123 10C108 53 80 86 19 72V37c35 8 53-11 59-39L3-190h52l48 148c12-52 28-100 44-148h51" id="ap"/><path fill="#a9afb8" d="M67-125c0 53 21 87 73 88 37 1 54-22 65-47l45 17C233-25 199 4 140 4 58 4 20-42 15-125 8-235 124-281 211-232c18 10 29 29 36 50l-46 12c-8-25-30-41-62-41-52 0-71 34-72 86" id="aq"/><path fill="#a9afb8" d="M110-194c64 0 96 36 96 99 0 64-35 99-97 99-61 0-95-36-95-99 0-62 34-99 96-99zm-1 164c35 0 45-28 45-65 0-40-10-65-43-65-34 0-45 26-45 65 0 36 10 65 43 65" id="ar"/><path fill="#a9afb8" d="M135-194c87-1 58 113 63 194h-50c-7-57 23-157-34-157-59 0-34 97-39 157H25l-1-190h47c2 12-1 28 3 38 12-26 28-41 61-42" id="as"/><path fill="#a9afb8" d="M190-63c-7 42-38 67-86 67-59 0-84-38-90-98-12-110 154-137 174-36l-49 2c-2-19-15-32-35-32-30 0-35 28-38 64-6 74 65 87 74 30" id="at"/><path fill="#a9afb8" d="M115-3C79 11 28 4 28-45v-112H4v-33h27l15-45h31v45h36v33H77v99c-1 23 16 31 38 25v30" id="au"/><g id="a"><use transform="matrix(0.0728395061728395,0,0,0.0728395061728395,0,0)" xlink:href="#ao"/><use transform="matrix(0.0728395061728395,0,0,0.0728395061728395,14.5679012345679,0)" xlink:href="#ap"/><use transform="matrix(0.0728395061728395,0,0,0.0728395061728395,29.1358024691358,0)" xlink:href="#ao"/><use transform="matrix(0.0728395061728395,0,0,0.0728395061728395,43.7037037037037,0)" xlink:href="#aq"/><use transform="matrix(0.0728395061728395,0,0,0.0728395061728395,62.569135802469134,0)" xlink:href="#ar"/><use transform="matrix(0.0728395061728395,0,0,0.0728395061728395,78.52098765432099,0)" xlink:href="#as"/><use transform="matrix(0.0728395061728395,0,0,0.0728395061728395,94.47283950617286,0)" xlink:href="#as"/><use transform="matrix(0.0728395061728395,0,0,0.0728395061728395,110.4246913580247,0)" xlink:href="#ao"/><use transform="matrix(0.0728395061728395,0,0,0.0728395061728395,124.9925925925926,0)" xlink:href="#at"/><use transform="matrix(0.0728395061728395,0,0,0.0728395061728395,139.5604938271605,0)" xlink:href="#au"/></g><path fill="#a9afb8" d="M96-169c-40 0-48 33-48 73s9 75 48 75c24 0 41-14 43-38l32 2c-6 37-31 61-74 61-59 0-76-41-82-99-10-93 101-131 147-64 4 7 5 14 7 22l-32 3c-4-21-16-35-41-35" id="av"/><path fill="#a9afb8" d="M141-36C126-15 110 5 73 4 37 3 15-17 15-53c-1-64 63-63 125-63 3-35-9-54-41-54-24 1-41 7-42 31l-33-3c5-37 33-52 76-52 45 0 72 20 72 64v82c-1 20 7 32 28 27v20c-31 9-61-2-59-35zM48-53c0 20 12 33 32 33 41-3 63-29 60-74-43 2-92-5-92 41" id="aw"/><path fill="#a9afb8" d="M117-194c89-4 53 116 60 194h-32v-121c0-31-8-49-39-48C34-167 62-67 57 0H25l-1-190h30c1 10-1 24 2 32 11-22 29-35 61-36" id="ax"/><g id="b"><use transform="matrix(0.04248971193415638,0,0,0.04248971193415638,0,0)" xlink:href="#av"/><use transform="matrix(0.04248971193415638,0,0,0.04248971193415638,7.648148148148148,0)" xlink:href="#aw"/><use transform="matrix(0.04248971193415638,0,0,0.04248971193415638,16.14609053497942,0)" xlink:href="#ax"/></g><path fill="#a9afb8" d="M177-190C167-65 218 103 67 71c-23-6-38-20-44-43l32-5c15 47 100 32 89-28v-30C133-14 115 1 83 1 29 1 15-40 15-95c0-56 16-97 71-98 29-1 48 16 59 35 1-10 0-23 2-32h30zM94-22c36 0 50-32 50-73 0-42-14-75-50-75-39 0-46 34-46 75s6 73 46 73" id="ay"/><path fill="#a9afb8" d="M100-194c62-1 85 37 85 99 1 63-27 99-86 99S16-35 15-95c0-66 28-99 85-99zM99-20c44 1 53-31 53-75 0-43-8-75-51-75s-53 32-53 75 10 74 51 75" id="az"/><path fill="#a9afb8" d="M24 0v-261h32V0H24" id="aA"/><path fill="#a9afb8" d="M84 4C-5 8 30-112 23-190h32v120c0 31 7 50 39 49 72-2 45-101 50-169h31l1 190h-30c-1-10 1-25-2-33-11 22-28 36-60 37" id="aB"/><g id="c"><use transform="matrix(0.04248971193415638,0,0,0.04248971193415638,0,0)" xlink:href="#ay"/><use transform="matrix(0.04248971193415638,0,0,0.04248971193415638,8.497942386831275,0)" xlink:href="#az"/><use transform="matrix(0.04248971193415638,0,0,0.04248971193415638,16.99588477366255,0)" xlink:href="#aA"/><use transform="matrix(0.04248971193415638,0,0,0.04248971193415638,20.352572016460904,0)" xlink:href="#az"/><use transform="matrix(0.04248971193415638,0,0,0.04248971193415638,28.85051440329218,0)" xlink:href="#ay"/><use transform="matrix(0.04248971193415638,0,0,0.04248971193415638,37.34845679012346,0)" xlink:href="#aA"/><use transform="matrix(0.04248971193415638,0,0,0.04248971193415638,40.70514403292181,0)" xlink:href="#aB"/></g><path fill="#a9afb8" d="M32 76v-337h29V76H32" id="aC"/><use transform="matrix(0.04248971193415638,0,0,0.04248971193415638,0,0)" xlink:href="#aC" id="d"/><path fill="#a9afb8" d="M205 0l-28-72H64L36 0H1l101-248h38L239 0h-34zm-38-99l-47-123c-12 45-31 82-46 123h93" id="aD"/><path fill="#a9afb8" d="M135-143c-3-34-86-38-87 0 15 53 115 12 119 90S17 21 10-45l28-5c4 36 97 45 98 0-10-56-113-15-118-90-4-57 82-63 122-42 12 7 21 19 24 35" id="aE"/><path fill="#a9afb8" d="M59-47c-2 24 18 29 38 22v24C64 9 27 4 27-40v-127H5v-23h24l9-43h21v43h35v23H59v120" id="aF"/><g id="e"><use transform="matrix(0.04248971193415638,0,0,0.04248971193415638,0,0)" xlink:href="#aD"/><use transform="matrix(0.04248971193415638,0,0,0.04248971193415638,10.19753086419753,0)" xlink:href="#aB"/><use transform="matrix(0.04248971193415638,0,0,0.04248971193415638,18.695473251028805,0)" xlink:href="#ay"/><use transform="matrix(0.04248971193415638,0,0,0.04248971193415638,27.193415637860078,0)" xlink:href="#aB"/><use transform="matrix(0.04248971193415638,0,0,0.04248971193415638,35.691358024691354,0)" xlink:href="#aE"/><use transform="matrix(0.04248971193415638,0,0,0.04248971193415638,43.3395061728395,0)" xlink:href="#aF"/></g><path fill="#a9afb8" d="M54-142c48-35 137-8 131 61C196 18 31 33 14-55l32-4c7 23 22 37 52 37 35-1 51-22 54-58 4-55-73-65-99-34H22l8-134h141v27H59" id="aG"/><path fill="#a9afb8" d="M68-38c1 34 0 65-14 84H32c9-13 17-26 17-46H33v-38h35" id="aH"/><g id="f"><use transform="matrix(0.04248971193415638,0,0,0.04248971193415638,0,0)" xlink:href="#aG"/><use transform="matrix(0.04248971193415638,0,0,0.04248971193415638,8.497942386831275,0)" xlink:href="#aH"/></g><path fill="#a9afb8" d="M101-251c82-7 93 87 43 132L82-64C71-53 59-42 53-27h129V0H18c2-99 128-94 128-182 0-28-16-43-45-43s-46 15-49 41l-32-3c6-41 34-60 81-64" id="aI"/><path fill="#a9afb8" d="M101-251c68 0 85 55 85 127S166 4 100 4C33 4 14-52 14-124c0-73 17-127 87-127zm-1 229c47 0 54-49 54-102s-4-102-53-102c-51 0-55 48-55 102 0 53 5 102 54 102" id="aJ"/><path fill="#a9afb8" d="M126-127c33 6 58 20 58 59 0 88-139 92-164 29-3-8-5-16-6-25l32-3c6 27 21 44 54 44 32 0 52-15 52-46 0-38-36-46-79-43v-28c39 1 72-4 72-42 0-27-17-43-46-43-28 0-47 15-49 41l-32-3c6-42 35-63 81-64 48-1 79 21 79 65 0 36-21 52-52 59" id="aK"/><g id="g"><use transform="matrix(0.04248971193415638,0,0,0.04248971193415638,0,0)" xlink:href="#aI"/><use transform="matrix(0.04248971193415638,0,0,0.04248971193415638,8.497942386831275,0)" xlink:href="#aJ"/><use transform="matrix(0.04248971193415638,0,0,0.04248971193415638,16.99588477366255,0)" xlink:href="#aI"/><use transform="matrix(0.04248971193415638,0,0,0.04248971193415638,25.493827160493822,0)" xlink:href="#aK"/></g><path fill="#3a414a" d="M232-93c-1 65-40 97-104 97C67 4 28-28 28-90v-158h33c8 89-33 224 67 224 102 0 64-133 71-224h33v155" id="aL"/><path fill="#3a414a" d="M135-143c-3-34-86-38-87 0 15 53 115 12 119 90S17 21 10-45l28-5c4 36 97 45 98 0-10-56-113-15-118-90-4-57 82-63 122-42 12 7 21 19 24 35" id="aM"/><path fill="#3a414a" d="M100-194c63 0 86 42 84 106H49c0 40 14 67 53 68 26 1 43-12 49-29l28 8c-11 28-37 45-77 45C44 4 14-33 15-96c1-61 26-98 85-98zm52 81c6-60-76-77-97-28-3 7-6 17-6 28h103" id="aN"/><path fill="#3a414a" d="M114-163C36-179 61-72 57 0H25l-1-190h30c1 12-1 29 2 39 6-27 23-49 58-41v29" id="aO"/><g id="h"><use transform="matrix(0.04938271604938272,0,0,0.04938271604938272,0,0)" xlink:href="#aL"/><use transform="matrix(0.04938271604938272,0,0,0.04938271604938272,12.790123456790125,0)" xlink:href="#aM"/><use transform="matrix(0.04938271604938272,0,0,0.04938271604938272,21.679012345679013,0)" xlink:href="#aN"/><use transform="matrix(0.04938271604938272,0,0,0.04938271604938272,31.555555555555557,0)" xlink:href="#aO"/></g><path fill="#3a414a" d="M-5 72V49h209v23H-5" id="aP"/><path fill="#3a414a" d="M24-231v-30h32v30H24zM24 0v-190h32V0H24" id="aQ"/><path fill="#3a414a" d="M85-194c31 0 48 13 60 33l-1-100h32l1 261h-30c-2-10 0-23-3-31C134-8 116 4 85 4 32 4 16-35 15-94c0-66 23-100 70-100zm9 24c-40 0-46 34-46 75 0 40 6 74 45 74 42 0 51-32 51-76 0-42-9-74-50-73" id="aR"/><g id="i"><use transform="matrix(0.04938271604938272,0,0,0.04938271604938272,0,0)" xlink:href="#aP"/><use transform="matrix(0.04938271604938272,0,0,0.04938271604938272,9.876543209876544,0)" xlink:href="#aQ"/><use transform="matrix(0.04938271604938272,0,0,0.04938271604938272,13.777777777777779,0)" xlink:href="#aR"/></g><path fill="#3a414a" d="M140-251c81 0 123 46 123 126C263-46 219 4 140 4 59 4 17-45 17-125s42-126 123-126zm0 227c63 0 89-41 89-101s-29-99-89-99c-61 0-89 39-89 99S79-25 140-24" id="aS"/><path fill="#3a414a" d="M115-194c53 0 69 39 70 98 0 66-23 100-70 100C84 3 66-7 56-30L54 0H23l1-261h32v101c10-23 28-34 59-34zm-8 174c40 0 45-34 45-75 0-40-5-75-45-74-42 0-51 32-51 76 0 43 10 73 51 73" id="aT"/><path fill="#3a414a" d="M24-231v-30h32v30H24zM-9 49c24 4 33-6 33-30v-209h32V24c2 40-23 58-65 49V49" id="aU"/><path fill="#3a414a" d="M96-169c-40 0-48 33-48 73s9 75 48 75c24 0 41-14 43-38l32 2c-6 37-31 61-74 61-59 0-76-41-82-99-10-93 101-131 147-64 4 7 5 14 7 22l-32 3c-4-21-16-35-41-35" id="aV"/><path fill="#3a414a" d="M59-47c-2 24 18 29 38 22v24C64 9 27 4 27-40v-127H5v-23h24l9-43h21v43h35v23H59v120" id="aW"/><path fill="#3a414a" d="M33 0v-248h34V0H33" id="aX"/><g id="j"><use transform="matrix(0.04938271604938272,0,0,0.04938271604938272,0,0)" xlink:href="#aS"/><use transform="matrix(0.04938271604938272,0,0,0.04938271604938272,13.827160493827162,0)" xlink:href="#aT"/><use transform="matrix(0.04938271604938272,0,0,0.04938271604938272,23.703703703703706,0)" xlink:href="#aU"/><use transform="matrix(0.04938271604938272,0,0,0.04938271604938272,27.60493827160494,0)" xlink:href="#aN"/><use transform="matrix(0.04938271604938272,0,0,0.04938271604938272,37.48148148148148,0)" xlink:href="#aV"/><use transform="matrix(0.04938271604938272,0,0,0.04938271604938272,46.37037037037037,0)" xlink:href="#aW"/><use transform="matrix(0.04938271604938272,0,0,0.04938271604938272,51.30864197530863,0)" xlink:href="#aX"/><use transform="matrix(0.04938271604938272,0,0,0.04938271604938272,56.246913580246904,0)" xlink:href="#aR"/></g><path fill="#3a414a" d="M84 4C-5 8 30-112 23-190h32v120c0 31 7 50 39 49 72-2 45-101 50-169h31l1 190h-30c-1-10 1-25-2-33-11 22-28 36-60 37" id="aY"/><path fill="#3a414a" d="M117-194c89-4 53 116 60 194h-32v-121c0-31-8-49-39-48C34-167 62-67 57 0H25l-1-190h30c1 10-1 24 2 32 11-22 29-35 61-36" id="aZ"/><path fill="#3a414a" d="M141-36C126-15 110 5 73 4 37 3 15-17 15-53c-1-64 63-63 125-63 3-35-9-54-41-54-24 1-41 7-42 31l-33-3c5-37 33-52 76-52 45 0 72 20 72 64v82c-1 20 7 32 28 27v20c-31 9-61-2-59-35zM48-53c0 20 12 33 32 33 41-3 63-29 60-74-43 2-92-5-92 41" id="ba"/><path fill="#3a414a" d="M210-169c-67 3-38 105-44 169h-31v-121c0-29-5-50-35-48C34-165 62-65 56 0H25l-1-190h30c1 10-1 24 2 32 10-44 99-50 107 0 11-21 27-35 58-36 85-2 47 119 55 194h-31v-121c0-29-5-49-35-48" id="bb"/><g id="k"><use transform="matrix(0.04938271604938272,0,0,0.04938271604938272,0,0)" xlink:href="#aY"/><use transform="matrix(0.04938271604938272,0,0,0.04938271604938272,9.876543209876544,0)" xlink:href="#aM"/><use transform="matrix(0.04938271604938272,0,0,0.04938271604938272,18.765432098765434,0)" xlink:href="#aN"/><use transform="matrix(0.04938271604938272,0,0,0.04938271604938272,28.641975308641978,0)" xlink:href="#aO"/><use transform="matrix(0.04938271604938272,0,0,0.04938271604938272,34.51851851851852,0)" xlink:href="#aZ"/><use transform="matrix(0.04938271604938272,0,0,0.04938271604938272,44.39506172839506,0)" xlink:href="#ba"/><use transform="matrix(0.04938271604938272,0,0,0.04938271604938272,54.27160493827161,0)" xlink:href="#bb"/><use transform="matrix(0.04938271604938272,0,0,0.04938271604938272,69.03703703703704,0)" xlink:href="#aN"/></g><path fill="#3a414a" d="M185-189c-5-48-123-54-124 2 14 75 158 14 163 119 3 78-121 87-175 55-17-10-28-26-33-46l33-7c5 56 141 63 141-1 0-78-155-14-162-118-5-82 145-84 179-34 5 7 8 16 11 25" id="bc"/><path fill="#3a414a" d="M177-190C167-65 218 103 67 71c-23-6-38-20-44-43l32-5c15 47 100 32 89-28v-30C133-14 115 1 83 1 29 1 15-40 15-95c0-56 16-97 71-98 29-1 48 16 59 35 1-10 0-23 2-32h30zM94-22c36 0 50-32 50-73 0-42-14-75-50-75-39 0-46 34-46 75s6 73 46 73" id="bd"/><g id="l"><use transform="matrix(0.04938271604938272,0,0,0.04938271604938272,0,0)" xlink:href="#bc"/><use transform="matrix(0.04938271604938272,0,0,0.04938271604938272,11.851851851851853,0)" xlink:href="#aW"/><use transform="matrix(0.04938271604938272,0,0,0.04938271604938272,16.790123456790127,0)" xlink:href="#aO"/><use transform="matrix(0.04938271604938272,0,0,0.04938271604938272,22.66666666666667,0)" xlink:href="#aQ"/><use transform="matrix(0.04938271604938272,0,0,0.04938271604938272,26.567901234567902,0)" xlink:href="#aZ"/><use transform="matrix(0.04938271604938272,0,0,0.04938271604938272,36.44444444444445,0)" xlink:href="#bd"/></g><path fill="#3a414a" d="M115-194c55 1 70 41 70 98S169 2 115 4C84 4 66-9 55-30l1 105H24l-1-265h31l2 30c10-21 28-34 59-34zm-8 174c40 0 45-34 45-75s-6-73-45-74c-42 0-51 32-51 76 0 43 10 73 51 73" id="be"/><path fill="#3a414a" d="M206 0h-36l-40-164L89 0H53L-1-190h32L70-26l43-164h34l41 164 42-164h31" id="bf"/><path fill="#3a414a" d="M100-194c62-1 85 37 85 99 1 63-27 99-86 99S16-35 15-95c0-66 28-99 85-99zM99-20c44 1 53-31 53-75 0-43-8-75-51-75s-53 32-53 75 10 74 51 75" id="bg"/><g id="m"><use transform="matrix(0.04938271604938272,0,0,0.04938271604938272,0,0)" xlink:href="#be"/><use transform="matrix(0.04938271604938272,0,0,0.04938271604938272,9.876543209876544,0)" xlink:href="#ba"/><use transform="matrix(0.04938271604938272,0,0,0.04938271604938272,19.75308641975309,0)" xlink:href="#aM"/><use transform="matrix(0.04938271604938272,0,0,0.04938271604938272,28.641975308641978,0)" xlink:href="#aM"/><use transform="matrix(0.04938271604938272,0,0,0.04938271604938272,37.53086419753087,0)" xlink:href="#bf"/><use transform="matrix(0.04938271604938272,0,0,0.04938271604938272,50.320987654320994,0)" xlink:href="#bg"/><use transform="matrix(0.04938271604938272,0,0,0.04938271604938272,60.19753086419754,0)" xlink:href="#aO"/><use transform="matrix(0.04938271604938272,0,0,0.04938271604938272,66.07407407407408,0)" xlink:href="#aR"/></g><path fill="#3a414a" d="M24 0v-261h32V0H24" id="bh"/><g id="n"><use transform="matrix(0.04938271604938272,0,0,0.04938271604938272,0,0)" xlink:href="#aN"/><use transform="matrix(0.04938271604938272,0,0,0.04938271604938272,9.876543209876544,0)" xlink:href="#bb"/><use transform="matrix(0.04938271604938272,0,0,0.04938271604938272,24.641975308641978,0)" xlink:href="#ba"/><use transform="matrix(0.04938271604938272,0,0,0.04938271604938272,34.51851851851852,0)" xlink:href="#aQ"/><use transform="matrix(0.04938271604938272,0,0,0.04938271604938272,38.41975308641975,0)" xlink:href="#bh"/></g><path fill="#3a414a" d="M205 0l-28-72H64L36 0H1l101-248h38L239 0h-34zm-38-99l-47-123c-12 45-31 82-46 123h93" id="bi"/><path fill="#3a414a" d="M106-169C34-169 62-67 57 0H25v-261h32l-1 103c12-21 28-36 61-36 89 0 53 116 60 194h-32v-121c2-32-8-49-39-48" id="bj"/><path fill="#3a414a" d="M127-220V0H93v-220H8v-28h204v28h-85" id="bk"/><path fill="#3a414a" d="M143 0L79-87 56-68V0H24v-261h32v163l83-92h37l-77 82L181 0h-38" id="bl"/><g id="o"><use transform="matrix(0.04938271604938272,0,0,0.04938271604938272,0,0)" xlink:href="#bg"/><use transform="matrix(0.04938271604938272,0,0,0.04938271604938272,9.876543209876544,0)" xlink:href="#bi"/><use transform="matrix(0.04938271604938272,0,0,0.04938271604938272,21.7283950617284,0)" xlink:href="#aY"/><use transform="matrix(0.04938271604938272,0,0,0.04938271604938272,31.60493827160494,0)" xlink:href="#aW"/><use transform="matrix(0.04938271604938272,0,0,0.04938271604938272,36.543209876543216,0)" xlink:href="#bj"/><use transform="matrix(0.04938271604938272,0,0,0.04938271604938272,46.41975308641976,0)" xlink:href="#bk"/><use transform="matrix(0.04938271604938272,0,0,0.04938271604938272,55.25925925925927,0)" xlink:href="#bg"/><use transform="matrix(0.04938271604938272,0,0,0.04938271604938272,65.13580246913581,0)" xlink:href="#bl"/><use transform="matrix(0.04938271604938272,0,0,0.04938271604938272,74.0246913580247,0)" xlink:href="#aN"/><use transform="matrix(0.04938271604938272,0,0,0.04938271604938272,83.90123456790124,0)" xlink:href="#aZ"/></g><g id="p"><use transform="matrix(0.04938271604938272,0,0,0.04938271604938272,0,0)" xlink:href="#aO"/><use transform="matrix(0.04938271604938272,0,0,0.04938271604938272,5.8765432098765435,0)" xlink:href="#bg"/><use transform="matrix(0.04938271604938272,0,0,0.04938271604938272,15.753086419753087,0)" xlink:href="#bh"/><use transform="matrix(0.04938271604938272,0,0,0.04938271604938272,19.654320987654323,0)" xlink:href="#aN"/></g><g id="q"><use transform="matrix(0.04938271604938272,0,0,0.04938271604938272,0,0)" xlink:href="#bc"/><use transform="matrix(0.04938271604938272,0,0,0.04938271604938272,11.851851851851853,0)" xlink:href="#aW"/><use transform="matrix(0.04938271604938272,0,0,0.04938271604938272,16.790123456790127,0)" xlink:href="#aO"/><use transform="matrix(0.04938271604938272,0,0,0.04938271604938272,22.66666666666667,0)" xlink:href="#aQ"/><use transform="matrix(0.04938271604938272,0,0,0.04938271604938272,26.567901234567902,0)" xlink:href="#aZ"/><use transform="matrix(0.04938271604938272,0,0,0.04938271604938272,36.44444444444445,0)" xlink:href="#bd"/></g><path fill="#3a414a" d="M87 75C49 33 22-17 22-94c0-76 28-126 65-167h31c-38 41-64 92-64 168S80 34 118 75H87" id="bm"/><path fill="#3a414a" d="M33-261c38 41 65 92 65 168S71 34 33 75H2C39 34 66-17 66-93S39-220 2-261h31" id="bn"/><g id="r"><use transform="matrix(0.04938271604938272,0,0,0.04938271604938272,0,0)" xlink:href="#bm"/><use transform="matrix(0.04938271604938272,0,0,0.04938271604938272,5.8765432098765435,0)" xlink:href="#aN"/><use transform="matrix(0.04938271604938272,0,0,0.04938271604938272,15.753086419753087,0)" xlink:href="#aZ"/><use transform="matrix(0.04938271604938272,0,0,0.04938271604938272,25.629629629629633,0)" xlink:href="#aY"/><use transform="matrix(0.04938271604938272,0,0,0.04938271604938272,35.50617283950618,0)" xlink:href="#bb"/><use transform="matrix(0.04938271604938272,0,0,0.04938271604938272,50.27160493827161,0)" xlink:href="#bn"/></g><g id="s"><use transform="matrix(0.04938271604938272,0,0,0.04938271604938272,0,0)" xlink:href="#aZ"/><use transform="matrix(0.04938271604938272,0,0,0.04938271604938272,9.876543209876544,0)" xlink:href="#ba"/><use transform="matrix(0.04938271604938272,0,0,0.04938271604938272,19.75308641975309,0)" xlink:href="#bb"/><use transform="matrix(0.04938271604938272,0,0,0.04938271604938272,34.51851851851852,0)" xlink:href="#aN"/></g><g id="t"><use transform="matrix(0.04938271604938272,0,0,0.04938271604938272,0,0)" xlink:href="#aQ"/><use transform="matrix(0.04938271604938272,0,0,0.04938271604938272,3.901234567901235,0)" xlink:href="#aZ"/><use transform="matrix(0.04938271604938272,0,0,0.04938271604938272,13.777777777777779,0)" xlink:href="#aM"/><use transform="matrix(0.04938271604938272,0,0,0.04938271604938272,22.666666666666668,0)" xlink:href="#aW"/><use transform="matrix(0.04938271604938272,0,0,0.04938271604938272,27.60493827160494,0)" xlink:href="#aQ"/><use transform="matrix(0.04938271604938272,0,0,0.04938271604938272,31.506172839506174,0)" xlink:href="#aW"/><use transform="matrix(0.04938271604938272,0,0,0.04938271604938272,36.44444444444444,0)" xlink:href="#aY"/><use transform="matrix(0.04938271604938272,0,0,0.04938271604938272,46.32098765432099,0)" xlink:href="#aW"/><use transform="matrix(0.04938271604938272,0,0,0.04938271604938272,51.25925925925927,0)" xlink:href="#aQ"/><use transform="matrix(0.04938271604938272,0,0,0.04938271604938272,55.1604938271605,0)" xlink:href="#bg"/><use transform="matrix(0.04938271604938272,0,0,0.04938271604938272,65.03703703703704,0)" xlink:href="#aZ"/></g><path fill="#3a414a" d="M101-234c-31-9-42 10-38 44h38v23H63V0H32v-167H5v-23h27c-7-52 17-82 69-68v24" id="bo"/><g id="u"><use transform="matrix(0.04938271604938272,0,0,0.04938271604938272,0,0)" xlink:href="#ba"/><use transform="matrix(0.04938271604938272,0,0,0.04938271604938272,9.876543209876544,0)" xlink:href="#aR"/><use transform="matrix(0.04938271604938272,0,0,0.04938271604938272,19.75308641975309,0)" xlink:href="#aR"/><use transform="matrix(0.04938271604938272,0,0,0.04938271604938272,29.629629629629633,0)" xlink:href="#aQ"/><use transform="matrix(0.04938271604938272,0,0,0.04938271604938272,33.53086419753087,0)" xlink:href="#aW"/><use transform="matrix(0.04938271604938272,0,0,0.04938271604938272,38.46913580246914,0)" xlink:href="#aQ"/><use transform="matrix(0.04938271604938272,0,0,0.04938271604938272,42.370370370370374,0)" xlink:href="#bg"/><use transform="matrix(0.04938271604938272,0,0,0.04938271604938272,52.24691358024692,0)" xlink:href="#aZ"/><use transform="matrix(0.04938271604938272,0,0,0.04938271604938272,62.12345679012346,0)" xlink:href="#ba"/><use transform="matrix(0.04938271604938272,0,0,0.04938271604938272,72,0)" xlink:href="#bh"/><use transform="matrix(0.04938271604938272,0,0,0.04938271604938272,75.90123456790124,0)" xlink:href="#aX"/><use transform="matrix(0.04938271604938272,0,0,0.04938271604938272,80.83950617283952,0)" xlink:href="#aZ"/><use transform="matrix(0.04938271604938272,0,0,0.04938271604938272,90.71604938271606,0)" xlink:href="#bo"/><use transform="matrix(0.04938271604938272,0,0,0.04938271604938272,95.65432098765433,0)" xlink:href="#bg"/></g><path fill="#3a414a" d="M26 75v-336h71v23H56V52h41v23H26" id="bp"/><path fill="#3a414a" d="M3 75V52h41v-290H3v-23h71V75H3" id="bq"/><g id="v"><use transform="matrix(0.04938271604938272,0,0,0.04938271604938272,0,0)" xlink:href="#bp"/><use transform="matrix(0.04938271604938272,0,0,0.04938271604938272,4.938271604938272,0)" xlink:href="#bc"/><use transform="matrix(0.04938271604938272,0,0,0.04938271604938272,16.790123456790127,0)" xlink:href="#aW"/><use transform="matrix(0.04938271604938272,0,0,0.04938271604938272,21.7283950617284,0)" xlink:href="#aO"/><use transform="matrix(0.04938271604938272,0,0,0.04938271604938272,27.604938271604947,0)" xlink:href="#aQ"/><use transform="matrix(0.04938271604938272,0,0,0.04938271604938272,31.506172839506174,0)" xlink:href="#aZ"/><use transform="matrix(0.04938271604938272,0,0,0.04938271604938272,41.38271604938272,0)" xlink:href="#bd"/><use transform="matrix(0.04938271604938272,0,0,0.04938271604938272,51.25925925925927,0)" xlink:href="#bq"/></g><path fill="#3a414a" d="M108 0H70L1-190h34L89-25l56-165h34" id="br"/><g id="w"><use transform="matrix(0.04938271604938272,0,0,0.04938271604938272,0,0)" xlink:href="#br"/><use transform="matrix(0.04938271604938272,0,0,0.04938271604938272,8.88888888888889,0)" xlink:href="#ba"/><use transform="matrix(0.04938271604938272,0,0,0.04938271604938272,18.765432098765434,0)" xlink:href="#bh"/><use transform="matrix(0.04938271604938272,0,0,0.04938271604938272,22.666666666666668,0)" xlink:href="#aQ"/><use transform="matrix(0.04938271604938272,0,0,0.04938271604938272,26.567901234567902,0)" xlink:href="#aR"/><use transform="matrix(0.04938271604938272,0,0,0.04938271604938272,36.44444444444444,0)" xlink:href="#ba"/><use transform="matrix(0.04938271604938272,0,0,0.04938271604938272,46.32098765432099,0)" xlink:href="#aW"/><use transform="matrix(0.04938271604938272,0,0,0.04938271604938272,51.25925925925927,0)" xlink:href="#aQ"/><use transform="matrix(0.04938271604938272,0,0,0.04938271604938272,55.1604938271605,0)" xlink:href="#bg"/><use transform="matrix(0.04938271604938272,0,0,0.04938271604938272,65.03703703703704,0)" xlink:href="#aZ"/><use transform="matrix(0.04938271604938272,0,0,0.04938271604938272,74.91358024691358,0)" xlink:href="#bc"/><use transform="matrix(0.04938271604938272,0,0,0.04938271604938272,86.76543209876543,0)" xlink:href="#aW"/><use transform="matrix(0.04938271604938272,0,0,0.04938271604938272,91.7037037037037,0)" xlink:href="#ba"/><use transform="matrix(0.04938271604938272,0,0,0.04938271604938272,101.58024691358024,0)" xlink:href="#aW"/><use transform="matrix(0.04938271604938272,0,0,0.04938271604938272,106.5185185185185,0)" xlink:href="#aY"/><use transform="matrix(0.04938271604938272,0,0,0.04938271604938272,116.39506172839505,0)" xlink:href="#aM"/></g><g id="x"><use transform="matrix(0.04938271604938272,0,0,0.04938271604938272,0,0)" xlink:href="#aZ"/><use transform="matrix(0.04938271604938272,0,0,0.04938271604938272,9.876543209876544,0)" xlink:href="#bg"/><use transform="matrix(0.04938271604938272,0,0,0.04938271604938272,19.75308641975309,0)" xlink:href="#aW"/><use transform="matrix(0.04938271604938272,0,0,0.04938271604938272,24.69135802469136,0)" xlink:href="#aQ"/><use transform="matrix(0.04938271604938272,0,0,0.04938271604938272,28.592592592592595,0)" xlink:href="#bo"/><use transform="matrix(0.04938271604938272,0,0,0.04938271604938272,33.53086419753087,0)" xlink:href="#aQ"/><use transform="matrix(0.04938271604938272,0,0,0.04938271604938272,37.4320987654321,0)" xlink:href="#aV"/><use transform="matrix(0.04938271604938272,0,0,0.04938271604938272,46.32098765432099,0)" xlink:href="#ba"/><use transform="matrix(0.04938271604938272,0,0,0.04938271604938272,56.19753086419754,0)" xlink:href="#aW"/><use transform="matrix(0.04938271604938272,0,0,0.04938271604938272,61.13580246913581,0)" xlink:href="#aQ"/><use transform="matrix(0.04938271604938272,0,0,0.04938271604938272,65.03703703703704,0)" xlink:href="#bg"/><use transform="matrix(0.04938271604938272,0,0,0.04938271604938272,74.91358024691358,0)" xlink:href="#aZ"/><use transform="matrix(0.04938271604938272,0,0,0.04938271604938272,84.79012345679013,0)" xlink:href="#aM"/></g><path fill="#3a414a" d="M190 0L58-211 59 0H30v-248h39L202-35l-2-213h31V0h-41" id="bs"/><g id="y"><use transform="matrix(0.04938271604938272,0,0,0.04938271604938272,0,0)" xlink:href="#bp"/><use transform="matrix(0.04938271604938272,0,0,0.04938271604938272,4.938271604938272,0)" xlink:href="#bs"/><use transform="matrix(0.04938271604938272,0,0,0.04938271604938272,17.7283950617284,0)" xlink:href="#bg"/><use transform="matrix(0.04938271604938272,0,0,0.04938271604938272,27.604938271604947,0)" xlink:href="#aW"/><use transform="matrix(0.04938271604938272,0,0,0.04938271604938272,32.543209876543216,0)" xlink:href="#aQ"/><use transform="matrix(0.04938271604938272,0,0,0.04938271604938272,36.44444444444445,0)" xlink:href="#bo"/><use transform="matrix(0.04938271604938272,0,0,0.04938271604938272,41.38271604938272,0)" xlink:href="#aQ"/><use transform="matrix(0.04938271604938272,0,0,0.04938271604938272,45.283950617283956,0)" xlink:href="#aV"/><use transform="matrix(0.04938271604938272,0,0,0.04938271604938272,54.17283950617284,0)" xlink:href="#ba"/><use transform="matrix(0.04938271604938272,0,0,0.04938271604938272,64.0493827160494,0)" xlink:href="#aW"/><use transform="matrix(0.04938271604938272,0,0,0.04938271604938272,68.98765432098767,0)" xlink:href="#aQ"/><use transform="matrix(0.04938271604938272,0,0,0.04938271604938272,72.88888888888891,0)" xlink:href="#bg"/><use transform="matrix(0.04938271604938272,0,0,0.04938271604938272,82.76543209876546,0)" xlink:href="#aZ"/><use transform="matrix(0.04938271604938272,0,0,0.04938271604938272,92.641975308642,0)" xlink:href="#bq"/></g><g id="z"><use transform="matrix(0.04938271604938272,0,0,0.04938271604938272,0,0)" xlink:href="#bs"/><use transform="matrix(0.04938271604938272,0,0,0.04938271604938272,12.790123456790125,0)" xlink:href="#bg"/><use transform="matrix(0.04938271604938272,0,0,0.04938271604938272,22.66666666666667,0)" xlink:href="#aW"/><use transform="matrix(0.04938271604938272,0,0,0.04938271604938272,27.604938271604947,0)" xlink:href="#aQ"/><use transform="matrix(0.04938271604938272,0,0,0.04938271604938272,31.506172839506174,0)" xlink:href="#bo"/><use transform="matrix(0.04938271604938272,0,0,0.04938271604938272,36.44444444444445,0)" xlink:href="#aQ"/><use transform="matrix(0.04938271604938272,0,0,0.04938271604938272,40.345679012345684,0)" xlink:href="#aV"/><use transform="matrix(0.04938271604938272,0,0,0.04938271604938272,49.23456790123457,0)" xlink:href="#ba"/><use transform="matrix(0.04938271604938272,0,0,0.04938271604938272,59.111111111111114,0)" xlink:href="#aW"/><use transform="matrix(0.04938271604938272,0,0,0.04938271604938272,64.0493827160494,0)" xlink:href="#aQ"/><use transform="matrix(0.04938271604938272,0,0,0.04938271604938272,67.95061728395063,0)" xlink:href="#bg"/><use transform="matrix(0.04938271604938272,0,0,0.04938271604938272,77.82716049382718,0)" xlink:href="#aZ"/></g><g id="A"><use transform="matrix(0.04938271604938272,0,0,0.04938271604938272,0,0)" xlink:href="#bm"/><use transform="matrix(0.04938271604938272,0,0,0.04938271604938272,5.8765432098765435,0)" xlink:href="#aN"/><use transform="matrix(0.04938271604938272,0,0,0.04938271604938272,15.753086419753087,0)" xlink:href="#bb"/><use transform="matrix(0.04938271604938272,0,0,0.04938271604938272,30.518518518518523,0)" xlink:href="#aT"/><use transform="matrix(0.04938271604938272,0,0,0.04938271604938272,40.39506172839506,0)" xlink:href="#aN"/><use transform="matrix(0.04938271604938272,0,0,0.04938271604938272,50.27160493827161,0)" xlink:href="#aR"/><use transform="matrix(0.04938271604938272,0,0,0.04938271604938272,60.14814814814815,0)" xlink:href="#aR"/><use transform="matrix(0.04938271604938272,0,0,0.04938271604938272,70.0246913580247,0)" xlink:href="#aN"/><use transform="matrix(0.04938271604938272,0,0,0.04938271604938272,79.90123456790124,0)" xlink:href="#aR"/><use transform="matrix(0.04938271604938272,0,0,0.04938271604938272,89.77777777777779,0)" xlink:href="#bn"/></g><g id="B"><use transform="matrix(0.04938271604938272,0,0,0.04938271604938272,0,0)" xlink:href="#aV"/><use transform="matrix(0.04938271604938272,0,0,0.04938271604938272,8.88888888888889,0)" xlink:href="#bg"/><use transform="matrix(0.04938271604938272,0,0,0.04938271604938272,18.765432098765434,0)" xlink:href="#aZ"/><use transform="matrix(0.04938271604938272,0,0,0.04938271604938272,28.641975308641978,0)" xlink:href="#aM"/><use transform="matrix(0.04938271604938272,0,0,0.04938271604938272,37.53086419753087,0)" xlink:href="#aY"/><use transform="matrix(0.04938271604938272,0,0,0.04938271604938272,47.40740740740741,0)" xlink:href="#bh"/><use transform="matrix(0.04938271604938272,0,0,0.04938271604938272,51.308641975308646,0)" xlink:href="#aW"/><use transform="matrix(0.04938271604938272,0,0,0.04938271604938272,56.24691358024692,0)" xlink:href="#ba"/><use transform="matrix(0.04938271604938272,0,0,0.04938271604938272,66.12345679012347,0)" xlink:href="#aW"/><use transform="matrix(0.04938271604938272,0,0,0.04938271604938272,71.06172839506175,0)" xlink:href="#aQ"/><use transform="matrix(0.04938271604938272,0,0,0.04938271604938272,74.96296296296299,0)" xlink:href="#bg"/><use transform="matrix(0.04938271604938272,0,0,0.04938271604938272,84.83950617283953,0)" xlink:href="#aZ"/></g><g id="C"><use transform="matrix(0.04938271604938272,0,0,0.04938271604938272,0,0)" xlink:href="#ba"/><use transform="matrix(0.04938271604938272,0,0,0.04938271604938272,9.876543209876544,0)" xlink:href="#aV"/><use transform="matrix(0.04938271604938272,0,0,0.04938271604938272,18.765432098765434,0)" xlink:href="#aW"/><use transform="matrix(0.04938271604938272,0,0,0.04938271604938272,23.703703703703706,0)" xlink:href="#aQ"/><use transform="matrix(0.04938271604938272,0,0,0.04938271604938272,27.60493827160494,0)" xlink:href="#bg"/><use transform="matrix(0.04938271604938272,0,0,0.04938271604938272,37.48148148148148,0)" xlink:href="#aZ"/></g><g id="D"><use transform="matrix(0.04938271604938272,0,0,0.04938271604938272,0,0)" xlink:href="#aM"/><use transform="matrix(0.04938271604938272,0,0,0.04938271604938272,8.88888888888889,0)" xlink:href="#aW"/><use transform="matrix(0.04938271604938272,0,0,0.04938271604938272,13.827160493827162,0)" xlink:href="#ba"/><use transform="matrix(0.04938271604938272,0,0,0.04938271604938272,23.703703703703706,0)" xlink:href="#aW"/><use transform="matrix(0.04938271604938272,0,0,0.04938271604938272,28.641975308641978,0)" xlink:href="#aY"/><use transform="matrix(0.04938271604938272,0,0,0.04938271604938272,38.51851851851852,0)" xlink:href="#aM"/></g><g id="E"><use transform="matrix(0.04938271604938272,0,0,0.04938271604938272,0,0)" xlink:href="#bj"/><use transform="matrix(0.04938271604938272,0,0,0.04938271604938272,9.876543209876544,0)" xlink:href="#aO"/><use transform="matrix(0.04938271604938272,0,0,0.04938271604938272,15.753086419753087,0)" xlink:href="#aN"/><use transform="matrix(0.04938271604938272,0,0,0.04938271604938272,25.629629629629633,0)" xlink:href="#bo"/></g><g id="F"><use transform="matrix(0.04938271604938272,0,0,0.04938271604938272,0,0)" xlink:href="#bb"/><use transform="matrix(0.04938271604938272,0,0,0.04938271604938272,14.765432098765434,0)" xlink:href="#aN"/><use transform="matrix(0.04938271604938272,0,0,0.04938271604938272,24.641975308641978,0)" xlink:href="#aM"/><use transform="matrix(0.04938271604938272,0,0,0.04938271604938272,33.53086419753087,0)" xlink:href="#aM"/><use transform="matrix(0.04938271604938272,0,0,0.04938271604938272,42.41975308641976,0)" xlink:href="#ba"/><use transform="matrix(0.04938271604938272,0,0,0.04938271604938272,52.2962962962963,0)" xlink:href="#bd"/><use transform="matrix(0.04938271604938272,0,0,0.04938271604938272,62.17283950617284,0)" xlink:href="#aN"/></g><path fill="#3a414a" d="M30-248c87 1 191-15 191 75 0 78-77 80-158 76V0H30v-248zm33 125c57 0 124 11 124-50 0-59-68-47-124-48v98" id="bt"/><g id="G"><use transform="matrix(0.04938271604938272,0,0,0.04938271604938272,0,0)" xlink:href="#bt"/><use transform="matrix(0.04938271604938272,0,0,0.04938271604938272,11.851851851851853,0)" xlink:href="#ba"/><use transform="matrix(0.04938271604938272,0,0,0.04938271604938272,21.7283950617284,0)" xlink:href="#aW"/><use transform="matrix(0.04938271604938272,0,0,0.04938271604938272,26.666666666666668,0)" xlink:href="#aQ"/><use transform="matrix(0.04938271604938272,0,0,0.04938271604938272,30.567901234567906,0)" xlink:href="#aN"/><use transform="matrix(0.04938271604938272,0,0,0.04938271604938272,40.44444444444445,0)" xlink:href="#aZ"/><use transform="matrix(0.04938271604938272,0,0,0.04938271604938272,50.320987654320994,0)" xlink:href="#aW"/></g><path fill="#3a414a" d="M160-131c35 5 61 23 61 61C221 17 115-2 30 0v-248c76 3 177-17 177 60 0 33-19 50-47 57zm-97-11c50-1 110 9 110-42 0-47-63-36-110-37v79zm0 115c55-2 124 14 124-45 0-56-70-42-124-44v89" id="bu"/><g id="H"><use transform="matrix(0.04938271604938272,0,0,0.04938271604938272,0,0)" xlink:href="#aR"/><use transform="matrix(0.04938271604938272,0,0,0.04938271604938272,9.876543209876544,0)" xlink:href="#ba"/><use transform="matrix(0.04938271604938272,0,0,0.04938271604938272,19.75308641975309,0)" xlink:href="#aW"/><use transform="matrix(0.04938271604938272,0,0,0.04938271604938272,24.69135802469136,0)" xlink:href="#aN"/><use transform="matrix(0.04938271604938272,0,0,0.04938271604938272,34.567901234567906,0)" xlink:href="#aS"/><use transform="matrix(0.04938271604938272,0,0,0.04938271604938272,48.39506172839506,0)" xlink:href="#bo"/><use transform="matrix(0.04938271604938272,0,0,0.04938271604938272,53.333333333333336,0)" xlink:href="#bu"/><use transform="matrix(0.04938271604938272,0,0,0.04938271604938272,65.18518518518519,0)" xlink:href="#aQ"/><use transform="matrix(0.04938271604938272,0,0,0.04938271604938272,69.08641975308643,0)" xlink:href="#aO"/><use transform="matrix(0.04938271604938272,0,0,0.04938271604938272,74.96296296296298,0)" xlink:href="#aW"/><use transform="matrix(0.04938271604938272,0,0,0.04938271604938272,79.90123456790124,0)" xlink:href="#bj"/></g><path fill="#3a414a" d="M30-248c118-7 216 8 213 122C240-48 200 0 122 0H30v-248zM63-27c89 8 146-16 146-99s-60-101-146-95v194" id="bv"/><g id="I"><use transform="matrix(0.04938271604938272,0,0,0.04938271604938272,0,0)" xlink:href="#bv"/><use transform="matrix(0.04938271604938272,0,0,0.04938271604938272,12.790123456790125,0)" xlink:href="#ba"/><use transform="matrix(0.04938271604938272,0,0,0.04938271604938272,22.66666666666667,0)" xlink:href="#aW"/><use transform="matrix(0.04938271604938272,0,0,0.04938271604938272,27.604938271604947,0)" xlink:href="#aN"/></g><g id="J"><use transform="matrix(0.04938271604938272,0,0,0.04938271604938272,0,0)" xlink:href="#bd"/><use transform="matrix(0.04938271604938272,0,0,0.04938271604938272,9.876543209876544,0)" xlink:href="#aN"/><use transform="matrix(0.04938271604938272,0,0,0.04938271604938272,19.75308641975309,0)" xlink:href="#aZ"/><use transform="matrix(0.04938271604938272,0,0,0.04938271604938272,29.629629629629633,0)" xlink:href="#aR"/><use transform="matrix(0.04938271604938272,0,0,0.04938271604938272,39.50617283950618,0)" xlink:href="#aN"/><use transform="matrix(0.04938271604938272,0,0,0.04938271604938272,49.38271604938272,0)" xlink:href="#aO"/></g><path fill="#3a414a" d="M141 0L90-78 38 0H4l68-98-65-92h35l48 74 47-74h35l-64 92 68 98h-35" id="bw"/><g id="K"><use transform="matrix(0.04938271604938272,0,0,0.04938271604938272,0,0)" xlink:href="#aN"/><use transform="matrix(0.04938271604938272,0,0,0.04938271604938272,9.876543209876544,0)" xlink:href="#bw"/><use transform="matrix(0.04938271604938272,0,0,0.04938271604938272,18.765432098765434,0)" xlink:href="#ba"/><use transform="matrix(0.04938271604938272,0,0,0.04938271604938272,28.641975308641978,0)" xlink:href="#bb"/><use transform="matrix(0.04938271604938272,0,0,0.04938271604938272,43.40740740740741,0)" xlink:href="#aM"/></g><g id="L"><use transform="matrix(0.04938271604938272,0,0,0.04938271604938272,0,0)" xlink:href="#bp"/><use transform="matrix(0.04938271604938272,0,0,0.04938271604938272,4.938271604938272,0)" xlink:href="#aS"/><use transform="matrix(0.04938271604938272,0,0,0.04938271604938272,18.765432098765434,0)" xlink:href="#aT"/><use transform="matrix(0.04938271604938272,0,0,0.04938271604938272,28.641975308641978,0)" xlink:href="#aU"/><use transform="matrix(0.04938271604938272,0,0,0.04938271604938272,32.543209876543216,0)" xlink:href="#aN"/><use transform="matrix(0.04938271604938272,0,0,0.04938271604938272,42.41975308641976,0)" xlink:href="#aV"/><use transform="matrix(0.04938271604938272,0,0,0.04938271604938272,51.308641975308646,0)" xlink:href="#aW"/><use transform="matrix(0.04938271604938272,0,0,0.04938271604938272,56.24691358024692,0)" xlink:href="#aX"/><use transform="matrix(0.04938271604938272,0,0,0.04938271604938272,61.18518518518519,0)" xlink:href="#aR"/><use transform="matrix(0.04938271604938272,0,0,0.04938271604938272,71.06172839506173,0)" xlink:href="#bq"/></g><path fill="#3a414a" d="M30 0v-248h187v28H63v79h144v27H63v87h162V0H30" id="bx"/><g id="M"><use transform="matrix(0.04938271604938272,0,0,0.04938271604938272,0,0)" xlink:href="#bx"/><use transform="matrix(0.04938271604938272,0,0,0.04938271604938272,11.851851851851853,0)" xlink:href="#bw"/><use transform="matrix(0.04938271604938272,0,0,0.04938271604938272,20.74074074074074,0)" xlink:href="#ba"/><use transform="matrix(0.04938271604938272,0,0,0.04938271604938272,30.617283950617285,0)" xlink:href="#bb"/><use transform="matrix(0.04938271604938272,0,0,0.04938271604938272,45.38271604938272,0)" xlink:href="#aQ"/><use transform="matrix(0.04938271604938272,0,0,0.04938271604938272,49.283950617283956,0)" xlink:href="#aZ"/><use transform="matrix(0.04938271604938272,0,0,0.04938271604938272,59.1604938271605,0)" xlink:href="#ba"/><use transform="matrix(0.04938271604938272,0,0,0.04938271604938272,69.03703703703704,0)" xlink:href="#aW"/><use transform="matrix(0.04938271604938272,0,0,0.04938271604938272,73.97530864197532,0)" xlink:href="#aQ"/><use transform="matrix(0.04938271604938272,0,0,0.04938271604938272,77.87654320987656,0)" xlink:href="#bg"/><use transform="matrix(0.04938271604938272,0,0,0.04938271604938272,87.7530864197531,0)" xlink:href="#aZ"/></g><g id="N"><use transform="matrix(0.04938271604938272,0,0,0.04938271604938272,0,0)" xlink:href="#aR"/><use transform="matrix(0.04938271604938272,0,0,0.04938271604938272,9.876543209876544,0)" xlink:href="#ba"/><use transform="matrix(0.04938271604938272,0,0,0.04938271604938272,19.75308641975309,0)" xlink:href="#aW"/><use transform="matrix(0.04938271604938272,0,0,0.04938271604938272,24.69135802469136,0)" xlink:href="#aN"/></g><g id="O"><use transform="matrix(0.04938271604938272,0,0,0.04938271604938272,0,0)" xlink:href="#aN"/><use transform="matrix(0.04938271604938272,0,0,0.04938271604938272,9.876543209876544,0)" xlink:href="#bw"/><use transform="matrix(0.04938271604938272,0,0,0.04938271604938272,18.765432098765434,0)" xlink:href="#ba"/><use transform="matrix(0.04938271604938272,0,0,0.04938271604938272,28.641975308641978,0)" xlink:href="#bb"/><use transform="matrix(0.04938271604938272,0,0,0.04938271604938272,43.40740740740741,0)" xlink:href="#aQ"/><use transform="matrix(0.04938271604938272,0,0,0.04938271604938272,47.308641975308646,0)" xlink:href="#aZ"/><use transform="matrix(0.04938271604938272,0,0,0.04938271604938272,57.18518518518519,0)" xlink:href="#aN"/><use transform="matrix(0.04938271604938272,0,0,0.04938271604938272,67.06172839506173,0)" xlink:href="#aO"/></g><g id="P"><use transform="matrix(0.04938271604938272,0,0,0.04938271604938272,0,0)" xlink:href="#be"/><use transform="matrix(0.04938271604938272,0,0,0.04938271604938272,9.876543209876544,0)" xlink:href="#ba"/><use transform="matrix(0.04938271604938272,0,0,0.04938271604938272,19.75308641975309,0)" xlink:href="#aW"/><use transform="matrix(0.04938271604938272,0,0,0.04938271604938272,24.69135802469136,0)" xlink:href="#aQ"/><use transform="matrix(0.04938271604938272,0,0,0.04938271604938272,28.592592592592595,0)" xlink:href="#aN"/><use transform="matrix(0.04938271604938272,0,0,0.04938271604938272,38.46913580246914,0)" xlink:href="#aZ"/><use transform="matrix(0.04938271604938272,0,0,0.04938271604938272,48.345679012345684,0)" xlink:href="#aW"/></g><g id="Q"><use transform="matrix(0.04938271604938272,0,0,0.04938271604938272,0,0)" xlink:href="#aZ"/><use transform="matrix(0.04938271604938272,0,0,0.04938271604938272,9.876543209876544,0)" xlink:href="#bg"/><use transform="matrix(0.04938271604938272,0,0,0.04938271604938272,19.75308641975309,0)" xlink:href="#aW"/><use transform="matrix(0.04938271604938272,0,0,0.04938271604938272,24.69135802469136,0)" xlink:href="#aN"/><use transform="matrix(0.04938271604938272,0,0,0.04938271604938272,34.567901234567906,0)" xlink:href="#aM"/></g><g id="R"><use transform="matrix(0.04938271604938272,0,0,0.04938271604938272,0,0)" xlink:href="#aQ"/><use transform="matrix(0.04938271604938272,0,0,0.04938271604938272,3.901234567901235,0)" xlink:href="#bb"/><use transform="matrix(0.04938271604938272,0,0,0.04938271604938272,18.666666666666668,0)" xlink:href="#ba"/><use transform="matrix(0.04938271604938272,0,0,0.04938271604938272,28.543209876543212,0)" xlink:href="#bd"/><use transform="matrix(0.04938271604938272,0,0,0.04938271604938272,38.41975308641976,0)" xlink:href="#aN"/><use transform="matrix(0.04938271604938272,0,0,0.04938271604938272,48.296296296296305,0)" xlink:href="#aM"/></g><path fill="#3a414a" d="M63-220v92h138v28H63V0H30v-248h175v28H63" id="by"/><path fill="#3a414a" d="M179-190L93 31C79 59 56 82 12 73V49c39 6 53-20 64-50L1-190h34L92-34l54-156h33" id="bz"/><g id="S"><use transform="matrix(0.04938271604938272,0,0,0.04938271604938272,0,0)" xlink:href="#by"/><use transform="matrix(0.04938271604938272,0,0,0.04938271604938272,10.814814814814815,0)" xlink:href="#aY"/><use transform="matrix(0.04938271604938272,0,0,0.04938271604938272,20.69135802469136,0)" xlink:href="#aZ"/><use transform="matrix(0.04938271604938272,0,0,0.04938271604938272,30.567901234567906,0)" xlink:href="#aR"/><use transform="matrix(0.04938271604938272,0,0,0.04938271604938272,40.44444444444445,0)" xlink:href="#aY"/><use transform="matrix(0.04938271604938272,0,0,0.04938271604938272,50.320987654320994,0)" xlink:href="#aM"/><use transform="matrix(0.04938271604938272,0,0,0.04938271604938272,59.209876543209894,0)" xlink:href="#aV"/><use transform="matrix(0.04938271604938272,0,0,0.04938271604938272,68.09876543209877,0)" xlink:href="#bg"/><use transform="matrix(0.04938271604938272,0,0,0.04938271604938272,77.97530864197532,0)" xlink:href="#be"/><use transform="matrix(0.04938271604938272,0,0,0.04938271604938272,87.85185185185186,0)" xlink:href="#bz"/></g><g id="T"><use transform="matrix(0.04938271604938272,0,0,0.04938271604938272,0,0)" xlink:href="#aQ"/><use transform="matrix(0.04938271604938272,0,0,0.04938271604938272,3.901234567901235,0)" xlink:href="#bb"/><use transform="matrix(0.04938271604938272,0,0,0.04938271604938272,18.666666666666668,0)" xlink:href="#ba"/><use transform="matrix(0.04938271604938272,0,0,0.04938271604938272,28.543209876543212,0)" xlink:href="#bd"/><use transform="matrix(0.04938271604938272,0,0,0.04938271604938272,38.41975308641976,0)" xlink:href="#aN"/></g><path fill="#3a414a" d="M0 4l72-265h28L28 4H0" id="bA"/><g id="U"><use transform="matrix(0.04938271604938272,0,0,0.04938271604938272,0,0)" xlink:href="#bu"/><use transform="matrix(0.04938271604938272,0,0,0.04938271604938272,11.851851851851853,0)" xlink:href="#aY"/><use transform="matrix(0.04938271604938272,0,0,0.04938271604938272,21.7283950617284,0)" xlink:href="#bo"/><use transform="matrix(0.04938271604938272,0,0,0.04938271604938272,26.32098765432099,0)" xlink:href="#bo"/><use transform="matrix(0.04938271604938272,0,0,0.04938271604938272,31.259259259259263,0)" xlink:href="#aN"/><use transform="matrix(0.04938271604938272,0,0,0.04938271604938272,41.13580246913581,0)" xlink:href="#aO"/><use transform="matrix(0.04938271604938272,0,0,0.04938271604938272,47.012345679012356,0)" xlink:href="#bA"/><use transform="matrix(0.04938271604938272,0,0,0.04938271604938272,51.950617283950635,0)" xlink:href="#bc"/><use transform="matrix(0.04938271604938272,0,0,0.04938271604938272,63.80246913580248,0)" xlink:href="#aW"/><use transform="matrix(0.04938271604938272,0,0,0.04938271604938272,68.74074074074076,0)" xlink:href="#aO"/><use transform="matrix(0.04938271604938272,0,0,0.04938271604938272,74.6172839506173,0)" xlink:href="#aQ"/><use transform="matrix(0.04938271604938272,0,0,0.04938271604938272,78.51851851851855,0)" xlink:href="#aZ"/><use transform="matrix(0.04938271604938272,0,0,0.04938271604938272,88.39506172839509,0)" xlink:href="#bd"/></g><path fill="#3a414a" d="M233-177c-1 41-23 64-60 70L243 0h-38l-65-103H63V0H30v-248c88 3 205-21 203 71zM63-129c60-2 137 13 137-47 0-61-80-42-137-45v92" id="bB"/><g id="V"><use transform="matrix(0.04938271604938272,0,0,0.04938271604938272,0,0)" xlink:href="#aV"/><use transform="matrix(0.04938271604938272,0,0,0.04938271604938272,8.88888888888889,0)" xlink:href="#bh"/><use transform="matrix(0.04938271604938272,0,0,0.04938271604938272,12.790123456790125,0)" xlink:href="#ba"/><use transform="matrix(0.04938271604938272,0,0,0.04938271604938272,22.666666666666668,0)" xlink:href="#aM"/><use transform="matrix(0.04938271604938272,0,0,0.04938271604938272,31.555555555555557,0)" xlink:href="#aM"/><use transform="matrix(0.04938271604938272,0,0,0.04938271604938272,40.44444444444444,0)" xlink:href="#aQ"/><use transform="matrix(0.04938271604938272,0,0,0.04938271604938272,44.34567901234568,0)" xlink:href="#bo"/><use transform="matrix(0.04938271604938272,0,0,0.04938271604938272,49.28395061728395,0)" xlink:href="#aQ"/><use transform="matrix(0.04938271604938272,0,0,0.04938271604938272,53.185185185185176,0)" xlink:href="#aV"/><use transform="matrix(0.04938271604938272,0,0,0.04938271604938272,62.074074074074076,0)" xlink:href="#ba"/><use transform="matrix(0.04938271604938272,0,0,0.04938271604938272,71.95061728395062,0)" xlink:href="#aW"/><use transform="matrix(0.04938271604938272,0,0,0.04938271604938272,76.88888888888889,0)" xlink:href="#aQ"/><use transform="matrix(0.04938271604938272,0,0,0.04938271604938272,80.79012345679013,0)" xlink:href="#bg"/><use transform="matrix(0.04938271604938272,0,0,0.04938271604938272,90.66666666666667,0)" xlink:href="#aZ"/><use transform="matrix(0.04938271604938272,0,0,0.04938271604938272,100.54320987654322,0)" xlink:href="#bB"/><use transform="matrix(0.04938271604938272,0,0,0.04938271604938272,113.33333333333334,0)" xlink:href="#aN"/><use transform="matrix(0.04938271604938272,0,0,0.04938271604938272,123.20987654320989,0)" xlink:href="#aM"/><use transform="matrix(0.04938271604938272,0,0,0.04938271604938272,132.0987654320988,0)" xlink:href="#aY"/><use transform="matrix(0.04938271604938272,0,0,0.04938271604938272,141.97530864197535,0)" xlink:href="#bh"/><use transform="matrix(0.04938271604938272,0,0,0.04938271604938272,145.8765432098766,0)" xlink:href="#aW"/></g><path fill="#3a414a" d="M212-179c-10-28-35-45-73-45-59 0-87 40-87 99 0 60 29 101 89 101 43 0 62-24 78-52l27 14C228-24 195 4 139 4 59 4 22-46 18-125c-6-104 99-153 187-111 19 9 31 26 39 46" id="bC"/><g id="W"><use transform="matrix(0.04938271604938272,0,0,0.04938271604938272,0,0)" xlink:href="#bC"/><use transform="matrix(0.04938271604938272,0,0,0.04938271604938272,12.790123456790125,0)" xlink:href="#bh"/><use transform="matrix(0.04938271604938272,0,0,0.04938271604938272,16.69135802469136,0)" xlink:href="#ba"/><use transform="matrix(0.04938271604938272,0,0,0.04938271604938272,26.567901234567902,0)" xlink:href="#aM"/><use transform="matrix(0.04938271604938272,0,0,0.04938271604938272,35.4567901234568,0)" xlink:href="#aM"/><use transform="matrix(0.04938271604938272,0,0,0.04938271604938272,44.345679012345684,0)" xlink:href="#aQ"/><use transform="matrix(0.04938271604938272,0,0,0.04938271604938272,48.24691358024692,0)" xlink:href="#bo"/><use transform="matrix(0.04938271604938272,0,0,0.04938271604938272,53.18518518518519,0)" xlink:href="#aQ"/><use transform="matrix(0.04938271604938272,0,0,0.04938271604938272,57.086419753086425,0)" xlink:href="#aV"/><use transform="matrix(0.04938271604938272,0,0,0.04938271604938272,65.97530864197532,0)" xlink:href="#ba"/><use transform="matrix(0.04938271604938272,0,0,0.04938271604938272,75.85185185185186,0)" xlink:href="#aW"/><use transform="matrix(0.04938271604938272,0,0,0.04938271604938272,80.79012345679013,0)" xlink:href="#aQ"/><use transform="matrix(0.04938271604938272,0,0,0.04938271604938272,84.69135802469137,0)" xlink:href="#bg"/><use transform="matrix(0.04938271604938272,0,0,0.04938271604938272,94.56790123456791,0)" xlink:href="#aZ"/><use transform="matrix(0.04938271604938272,0,0,0.04938271604938272,104.44444444444446,0)" xlink:href="#bB"/><use transform="matrix(0.04938271604938272,0,0,0.04938271604938272,117.23456790123458,0)" xlink:href="#aN"/><use transform="matrix(0.04938271604938272,0,0,0.04938271604938272,127.11111111111113,0)" xlink:href="#aM"/><use transform="matrix(0.04938271604938272,0,0,0.04938271604938272,136.00000000000003,0)" xlink:href="#aY"/><use transform="matrix(0.04938271604938272,0,0,0.04938271604938272,145.87654320987656,0)" xlink:href="#bh"/><use transform="matrix(0.04938271604938272,0,0,0.04938271604938272,149.7777777777778,0)" xlink:href="#aW"/></g><g id="X"><use transform="matrix(0.04938271604938272,0,0,0.04938271604938272,0,0)" xlink:href="#br"/><use transform="matrix(0.04938271604938272,0,0,0.04938271604938272,8.88888888888889,0)" xlink:href="#aN"/><use transform="matrix(0.04938271604938272,0,0,0.04938271604938272,18.765432098765434,0)" xlink:href="#aO"/><use transform="matrix(0.04938271604938272,0,0,0.04938271604938272,24.641975308641978,0)" xlink:href="#aQ"/><use transform="matrix(0.04938271604938272,0,0,0.04938271604938272,28.543209876543212,0)" xlink:href="#bo"/><use transform="matrix(0.04938271604938272,0,0,0.04938271604938272,33.48148148148148,0)" xlink:href="#aQ"/><use transform="matrix(0.04938271604938272,0,0,0.04938271604938272,37.382716049382715,0)" xlink:href="#aN"/><use transform="matrix(0.04938271604938272,0,0,0.04938271604938272,47.25925925925926,0)" xlink:href="#aR"/></g><g id="Y"><use transform="matrix(0.04938271604938272,0,0,0.04938271604938272,0,0)" xlink:href="#bu"/><use transform="matrix(0.04938271604938272,0,0,0.04938271604938272,11.851851851851853,0)" xlink:href="#bg"/><use transform="matrix(0.04938271604938272,0,0,0.04938271604938272,21.7283950617284,0)" xlink:href="#bg"/><use transform="matrix(0.04938271604938272,0,0,0.04938271604938272,31.60493827160494,0)" xlink:href="#bh"/><use transform="matrix(0.04938271604938272,0,0,0.04938271604938272,35.50617283950618,0)" xlink:href="#aN"/><use transform="matrix(0.04938271604938272,0,0,0.04938271604938272,45.38271604938272,0)" xlink:href="#ba"/><use transform="matrix(0.04938271604938272,0,0,0.04938271604938272,55.25925925925927,0)" xlink:href="#aZ"/></g><g id="Z"><use transform="matrix(0.04938271604938272,0,0,0.04938271604938272,0,0)" xlink:href="#br"/><use transform="matrix(0.04938271604938272,0,0,0.04938271604938272,8.88888888888889,0)" xlink:href="#aN"/><use transform="matrix(0.04938271604938272,0,0,0.04938271604938272,18.765432098765434,0)" xlink:href="#aO"/><use transform="matrix(0.04938271604938272,0,0,0.04938271604938272,24.641975308641978,0)" xlink:href="#aQ"/><use transform="matrix(0.04938271604938272,0,0,0.04938271604938272,28.543209876543212,0)" xlink:href="#bo"/><use transform="matrix(0.04938271604938272,0,0,0.04938271604938272,33.48148148148148,0)" xlink:href="#aQ"/><use transform="matrix(0.04938271604938272,0,0,0.04938271604938272,37.382716049382715,0)" xlink:href="#aN"/><use transform="matrix(0.04938271604938272,0,0,0.04938271604938272,47.25925925925926,0)" xlink:href="#aR"/><use transform="matrix(0.04938271604938272,0,0,0.04938271604938272,57.135802469135804,0)" xlink:href="#bu"/><use transform="matrix(0.04938271604938272,0,0,0.04938271604938272,68.98765432098766,0)" xlink:href="#bz"/></g><g id="aa"><use transform="matrix(0.04938271604938272,0,0,0.04938271604938272,0,0)" xlink:href="#br"/><use transform="matrix(0.04938271604938272,0,0,0.04938271604938272,8.88888888888889,0)" xlink:href="#aN"/><use transform="matrix(0.04938271604938272,0,0,0.04938271604938272,18.765432098765434,0)" xlink:href="#aO"/><use transform="matrix(0.04938271604938272,0,0,0.04938271604938272,24.641975308641978,0)" xlink:href="#aQ"/><use transform="matrix(0.04938271604938272,0,0,0.04938271604938272,28.543209876543212,0)" xlink:href="#bo"/><use transform="matrix(0.04938271604938272,0,0,0.04938271604938272,33.48148148148148,0)" xlink:href="#aQ"/><use transform="matrix(0.04938271604938272,0,0,0.04938271604938272,37.382716049382715,0)" xlink:href="#aN"/><use transform="matrix(0.04938271604938272,0,0,0.04938271604938272,47.25925925925926,0)" xlink:href="#aR"/><use transform="matrix(0.04938271604938272,0,0,0.04938271604938272,57.135802469135804,0)" xlink:href="#bB"/><use transform="matrix(0.04938271604938272,0,0,0.04938271604938272,69.92592592592592,0)" xlink:href="#aN"/><use transform="matrix(0.04938271604938272,0,0,0.04938271604938272,79.80246913580247,0)" xlink:href="#aM"/><use transform="matrix(0.04938271604938272,0,0,0.04938271604938272,88.69135802469135,0)" xlink:href="#aY"/><use transform="matrix(0.04938271604938272,0,0,0.04938271604938272,98.5679012345679,0)" xlink:href="#bh"/><use transform="matrix(0.04938271604938272,0,0,0.04938271604938272,102.46913580246914,0)" xlink:href="#aW"/></g><g id="ab"><use transform="matrix(0.04938271604938272,0,0,0.04938271604938272,0,0)" xlink:href="#aN"/><use transform="matrix(0.04938271604938272,0,0,0.04938271604938272,9.876543209876544,0)" xlink:href="#bw"/><use transform="matrix(0.04938271604938272,0,0,0.04938271604938272,18.765432098765434,0)" xlink:href="#ba"/><use transform="matrix(0.04938271604938272,0,0,0.04938271604938272,28.641975308641978,0)" xlink:href="#bb"/><use transform="matrix(0.04938271604938272,0,0,0.04938271604938272,43.40740740740741,0)" xlink:href="#aQ"/><use transform="matrix(0.04938271604938272,0,0,0.04938271604938272,47.308641975308646,0)" xlink:href="#aZ"/><use transform="matrix(0.04938271604938272,0,0,0.04938271604938272,57.18518518518519,0)" xlink:href="#ba"/><use transform="matrix(0.04938271604938272,0,0,0.04938271604938272,67.06172839506173,0)" xlink:href="#aW"/><use transform="matrix(0.04938271604938272,0,0,0.04938271604938272,72,0)" xlink:href="#aQ"/><use transform="matrix(0.04938271604938272,0,0,0.04938271604938272,75.90123456790124,0)" xlink:href="#bg"/><use transform="matrix(0.04938271604938272,0,0,0.04938271604938272,85.77777777777779,0)" xlink:href="#aZ"/></g><g id="ac"><use transform="matrix(0.04938271604938272,0,0,0.04938271604938272,0,0)" xlink:href="#bC"/><use transform="matrix(0.04938271604938272,0,0,0.04938271604938272,12.790123456790125,0)" xlink:href="#bh"/><use transform="matrix(0.04938271604938272,0,0,0.04938271604938272,16.69135802469136,0)" xlink:href="#ba"/><use transform="matrix(0.04938271604938272,0,0,0.04938271604938272,26.567901234567902,0)" xlink:href="#aM"/><use transform="matrix(0.04938271604938272,0,0,0.04938271604938272,35.4567901234568,0)" xlink:href="#aM"/><use transform="matrix(0.04938271604938272,0,0,0.04938271604938272,44.345679012345684,0)" xlink:href="#aQ"/><use transform="matrix(0.04938271604938272,0,0,0.04938271604938272,48.24691358024692,0)" xlink:href="#bo"/><use transform="matrix(0.04938271604938272,0,0,0.04938271604938272,53.18518518518519,0)" xlink:href="#aQ"/><use transform="matrix(0.04938271604938272,0,0,0.04938271604938272,57.086419753086425,0)" xlink:href="#aV"/><use transform="matrix(0.04938271604938272,0,0,0.04938271604938272,65.97530864197532,0)" xlink:href="#ba"/><use transform="matrix(0.04938271604938272,0,0,0.04938271604938272,75.85185185185186,0)" xlink:href="#aW"/><use transform="matrix(0.04938271604938272,0,0,0.04938271604938272,80.79012345679013,0)" xlink:href="#aQ"/><use transform="matrix(0.04938271604938272,0,0,0.04938271604938272,84.69135802469137,0)" xlink:href="#bg"/><use transform="matrix(0.04938271604938272,0,0,0.04938271604938272,94.56790123456791,0)" xlink:href="#aZ"/><use transform="matrix(0.04938271604938272,0,0,0.04938271604938272,104.44444444444446,0)" xlink:href="#bB"/><use transform="matrix(0.04938271604938272,0,0,0.04938271604938272,117.23456790123458,0)" xlink:href="#aN"/><use transform="matrix(0.04938271604938272,0,0,0.04938271604938272,127.11111111111113,0)" xlink:href="#aM"/><use transform="matrix(0.04938271604938272,0,0,0.04938271604938272,136.00000000000003,0)" xlink:href="#aY"/><use transform="matrix(0.04938271604938272,0,0,0.04938271604938272,145.87654320987656,0)" xlink:href="#bh"/><use transform="matrix(0.04938271604938272,0,0,0.04938271604938272,149.7777777777778,0)" xlink:href="#aW"/></g><g id="ad"><use transform="matrix(0.04938271604938272,0,0,0.04938271604938272,0,0)" xlink:href="#br"/><use transform="matrix(0.04938271604938272,0,0,0.04938271604938272,8.88888888888889,0)" xlink:href="#ba"/><use transform="matrix(0.04938271604938272,0,0,0.04938271604938272,18.765432098765434,0)" xlink:href="#bh"/><use transform="matrix(0.04938271604938272,0,0,0.04938271604938272,22.666666666666668,0)" xlink:href="#aY"/><use transform="matrix(0.04938271604938272,0,0,0.04938271604938272,32.543209876543216,0)" xlink:href="#aN"/></g><g id="ae"><use transform="matrix(0.04938271604938272,0,0,0.04938271604938272,0,0)" xlink:href="#bs"/><use transform="matrix(0.04938271604938272,0,0,0.04938271604938272,12.790123456790125,0)" xlink:href="#aY"/><use transform="matrix(0.04938271604938272,0,0,0.04938271604938272,22.66666666666667,0)" xlink:href="#bb"/><use transform="matrix(0.04938271604938272,0,0,0.04938271604938272,37.4320987654321,0)" xlink:href="#aT"/><use transform="matrix(0.04938271604938272,0,0,0.04938271604938272,47.308641975308646,0)" xlink:href="#aN"/><use transform="matrix(0.04938271604938272,0,0,0.04938271604938272,57.18518518518519,0)" xlink:href="#aO"/></g><g id="af"><use transform="matrix(0.04938271604938272,0,0,0.04938271604938272,0,0)" xlink:href="#aO"/><use transform="matrix(0.04938271604938272,0,0,0.04938271604938272,5.8765432098765435,0)" xlink:href="#aN"/><use transform="matrix(0.04938271604938272,0,0,0.04938271604938272,15.753086419753087,0)" xlink:href="#aM"/><use transform="matrix(0.04938271604938272,0,0,0.04938271604938272,24.641975308641978,0)" xlink:href="#aY"/><use transform="matrix(0.04938271604938272,0,0,0.04938271604938272,34.51851851851852,0)" xlink:href="#bh"/><use transform="matrix(0.04938271604938272,0,0,0.04938271604938272,38.41975308641975,0)" xlink:href="#aW"/></g><g id="ag"><use transform="matrix(0.04938271604938272,0,0,0.04938271604938272,0,0)" xlink:href="#bC"/><use transform="matrix(0.04938271604938272,0,0,0.04938271604938272,12.790123456790125,0)" xlink:href="#bg"/><use transform="matrix(0.04938271604938272,0,0,0.04938271604938272,22.66666666666667,0)" xlink:href="#aZ"/><use transform="matrix(0.04938271604938272,0,0,0.04938271604938272,32.543209876543216,0)" xlink:href="#aM"/><use transform="matrix(0.04938271604938272,0,0,0.04938271604938272,41.4320987654321,0)" xlink:href="#aY"/><use transform="matrix(0.04938271604938272,0,0,0.04938271604938272,51.308641975308646,0)" xlink:href="#bh"/><use transform="matrix(0.04938271604938272,0,0,0.04938271604938272,55.20987654320988,0)" xlink:href="#aW"/><use transform="matrix(0.04938271604938272,0,0,0.04938271604938272,60.14814814814815,0)" xlink:href="#ba"/><use transform="matrix(0.04938271604938272,0,0,0.04938271604938272,70.0246913580247,0)" xlink:href="#aW"/><use transform="matrix(0.04938271604938272,0,0,0.04938271604938272,74.96296296296296,0)" xlink:href="#aQ"/><use transform="matrix(0.04938271604938272,0,0,0.04938271604938272,78.8641975308642,0)" xlink:href="#bg"/><use transform="matrix(0.04938271604938272,0,0,0.04938271604938272,88.74074074074075,0)" xlink:href="#aZ"/></g><g id="ah"><use transform="matrix(0.04938271604938272,0,0,0.04938271604938272,0,0)" xlink:href="#aV"/><use transform="matrix(0.04938271604938272,0,0,0.04938271604938272,8.88888888888889,0)" xlink:href="#bg"/><use transform="matrix(0.04938271604938272,0,0,0.04938271604938272,18.765432098765434,0)" xlink:href="#aZ"/><use transform="matrix(0.04938271604938272,0,0,0.04938271604938272,28.641975308641978,0)" xlink:href="#aM"/><use transform="matrix(0.04938271604938272,0,0,0.04938271604938272,37.53086419753087,0)" xlink:href="#aY"/><use transform="matrix(0.04938271604938272,0,0,0.04938271604938272,47.40740740740741,0)" xlink:href="#bh"/><use transform="matrix(0.04938271604938272,0,0,0.04938271604938272,51.308641975308646,0)" xlink:href="#aW"/><use transform="matrix(0.04938271604938272,0,0,0.04938271604938272,56.24691358024692,0)" xlink:href="#ba"/><use transform="matrix(0.04938271604938272,0,0,0.04938271604938272,66.12345679012347,0)" xlink:href="#aZ"/><use transform="matrix(0.04938271604938272,0,0,0.04938271604938272,76.00000000000001,0)" xlink:href="#aW"/></g><g id="ai"><use transform="matrix(0.04938271604938272,0,0,0.04938271604938272,0,0)" xlink:href="#aV"/><use transform="matrix(0.04938271604938272,0,0,0.04938271604938272,8.88888888888889,0)" xlink:href="#bg"/><use transform="matrix(0.04938271604938272,0,0,0.04938271604938272,18.765432098765434,0)" xlink:href="#bb"/><use transform="matrix(0.04938271604938272,0,0,0.04938271604938272,33.53086419753087,0)" xlink:href="#bb"/><use transform="matrix(0.04938271604938272,0,0,0.04938271604938272,48.296296296296305,0)" xlink:href="#aN"/><use transform="matrix(0.04938271604938272,0,0,0.04938271604938272,58.17283950617284,0)" xlink:href="#aZ"/><use transform="matrix(0.04938271604938272,0,0,0.04938271604938272,68.0493827160494,0)" xlink:href="#aW"/><use transform="matrix(0.04938271604938272,0,0,0.04938271604938272,72.98765432098767,0)" xlink:href="#aM"/></g><g id="aj"><use transform="matrix(0.04938271604938272,0,0,0.04938271604938272,0,0)" xlink:href="#bp"/><use transform="matrix(0.04938271604938272,0,0,0.04938271604938272,4.938271604938272,0)" xlink:href="#bC"/><use transform="matrix(0.04938271604938272,0,0,0.04938271604938272,17.7283950617284,0)" xlink:href="#bg"/><use transform="matrix(0.04938271604938272,0,0,0.04938271604938272,27.604938271604947,0)" xlink:href="#bb"/><use transform="matrix(0.04938271604938272,0,0,0.04938271604938272,42.37037037037038,0)" xlink:href="#bb"/><use transform="matrix(0.04938271604938272,0,0,0.04938271604938272,57.135802469135804,0)" xlink:href="#aN"/><use transform="matrix(0.04938271604938272,0,0,0.04938271604938272,67.01234567901236,0)" xlink:href="#aZ"/><use transform="matrix(0.04938271604938272,0,0,0.04938271604938272,76.8888888888889,0)" xlink:href="#aW"/><use transform="matrix(0.04938271604938272,0,0,0.04938271604938272,81.82716049382717,0)" xlink:href="#bq"/></g><g id="ak"><use transform="matrix(0.04938271604938272,0,0,0.04938271604938272,0,0)" xlink:href="#bC"/><use transform="matrix(0.04938271604938272,0,0,0.04938271604938272,12.790123456790125,0)" xlink:href="#bg"/><use transform="matrix(0.04938271604938272,0,0,0.04938271604938272,22.66666666666667,0)" xlink:href="#bb"/><use transform="matrix(0.04938271604938272,0,0,0.04938271604938272,37.4320987654321,0)" xlink:href="#bb"/><use transform="matrix(0.04938271604938272,0,0,0.04938271604938272,52.19753086419754,0)" xlink:href="#aN"/><use transform="matrix(0.04938271604938272,0,0,0.04938271604938272,62.074074074074076,0)" xlink:href="#aZ"/><use transform="matrix(0.04938271604938272,0,0,0.04938271604938272,71.95061728395062,0)" xlink:href="#aW"/></g><g id="al"><use transform="matrix(0.04938271604938272,0,0,0.04938271604938272,0,0)" xlink:href="#ba"/><use transform="matrix(0.04938271604938272,0,0,0.04938271604938272,9.876543209876544,0)" xlink:href="#aY"/><use transform="matrix(0.04938271604938272,0,0,0.04938271604938272,19.75308641975309,0)" xlink:href="#aW"/><use transform="matrix(0.04938271604938272,0,0,0.04938271604938272,24.69135802469136,0)" xlink:href="#bj"/><use transform="matrix(0.04938271604938272,0,0,0.04938271604938272,34.567901234567906,0)" xlink:href="#bg"/><use transform="matrix(0.04938271604938272,0,0,0.04938271604938272,44.44444444444445,0)" xlink:href="#aO"/></g><g id="am"><use transform="matrix(0.04938271604938272,0,0,0.04938271604938272,0,0)" xlink:href="#be"/><use transform="matrix(0.04938271604938272,0,0,0.04938271604938272,9.876543209876544,0)" xlink:href="#ba"/><use transform="matrix(0.04938271604938272,0,0,0.04938271604938272,19.75308641975309,0)" xlink:href="#aO"/><use transform="matrix(0.04938271604938272,0,0,0.04938271604938272,25.629629629629633,0)" xlink:href="#aN"/><use transform="matrix(0.04938271604938272,0,0,0.04938271604938272,35.50617283950618,0)" xlink:href="#aZ"/><use transform="matrix(0.04938271604938272,0,0,0.04938271604938272,45.38271604938272,0)" xlink:href="#aW"/></g><g id="an"><use transform="matrix(0.04938271604938272,0,0,0.04938271604938272,0,0)" xlink:href="#ba"/><use transform="matrix(0.04938271604938272,0,0,0.04938271604938272,9.876543209876544,0)" xlink:href="#aZ"/><use transform="matrix(0.04938271604938272,0,0,0.04938271604938272,19.75308641975309,0)" xlink:href="#aV"/><use transform="matrix(0.04938271604938272,0,0,0.04938271604938272,28.641975308641978,0)" xlink:href="#aN"/><use transform="matrix(0.04938271604938272,0,0,0.04938271604938272,38.51851851851852,0)" xlink:href="#aM"/><use transform="matrix(0.04938271604938272,0,0,0.04938271604938272,47.407407407407405,0)" xlink:href="#aW"/><use transform="matrix(0.04938271604938272,0,0,0.04938271604938272,52.34567901234567,0)" xlink:href="#bg"/><use transform="matrix(0.04938271604938272,0,0,0.04938271604938272,62.222222222222214,0)" xlink:href="#aO"/><use transform="matrix(0.04938271604938272,0,0,0.04938271604938272,68.09876543209876,0)" xlink:href="#aM"/></g></defs></g></svg>